<mxfile host="app.diagrams.net" modified="2022-06-01T16:54:24.027Z" agent="5.0 (Macintosh; Intel Mac OS X 10_15_7) AppleWebKit/537.36 (KHTML, like Gecko) Chrome/101.0.4951.64 Safari/537.36" etag="wyb4ci2HwFEjIa-8xjoH" version="18.1.3" type="github" pages="9">
  <diagram id="7i95vSfHNOfutzt5K12y" name="Use Case">
    <mxGraphModel dx="1967" dy="1072" grid="1" gridSize="10" guides="1" tooltips="1" connect="1" arrows="1" fold="1" page="1" pageScale="1" pageWidth="827" pageHeight="1169" math="0" shadow="0">
      <root>
        <mxCell id="0" />
        <mxCell id="1" parent="0" />
        <mxCell id="KAqysuzeB88MC8dRCDyG-1" value="Player" style="shape=umlActor;verticalLabelPosition=bottom;verticalAlign=top;html=1;" parent="1" vertex="1">
          <mxGeometry x="160" y="420" width="30" height="60" as="geometry" />
        </mxCell>
        <mxCell id="KAqysuzeB88MC8dRCDyG-4" value="BoardGame" style="html=1;align=center;verticalAlign=top;" parent="1" vertex="1">
          <mxGeometry x="220" y="231.5" width="350" height="405" as="geometry" />
        </mxCell>
        <mxCell id="KAqysuzeB88MC8dRCDyG-5" value="Rest" style="ellipse;whiteSpace=wrap;html=1;" parent="1" vertex="1">
          <mxGeometry x="360" y="310" width="70" height="40" as="geometry" />
        </mxCell>
        <mxCell id="KAqysuzeB88MC8dRCDyG-6" value="Move" style="ellipse;whiteSpace=wrap;html=1;" parent="1" vertex="1">
          <mxGeometry x="360" y="370" width="70" height="40" as="geometry" />
        </mxCell>
        <mxCell id="KAqysuzeB88MC8dRCDyG-7" value="Manage Player" style="ellipse;whiteSpace=wrap;html=1;" parent="1" vertex="1">
          <mxGeometry x="360" y="446" width="70" height="40" as="geometry" />
        </mxCell>
        <mxCell id="KAqysuzeB88MC8dRCDyG-9" value="Manage Map" style="ellipse;whiteSpace=wrap;html=1;" parent="1" vertex="1">
          <mxGeometry x="360" y="520" width="70" height="40" as="geometry" />
        </mxCell>
        <mxCell id="KAqysuzeB88MC8dRCDyG-13" value="«actor»&lt;br&gt;Game Master" style="html=1;" parent="1" vertex="1">
          <mxGeometry x="600" y="441" width="110" height="50" as="geometry" />
        </mxCell>
        <mxCell id="KAqysuzeB88MC8dRCDyG-25" style="edgeStyle=orthogonalEdgeStyle;curved=1;jumpStyle=none;orthogonalLoop=1;jettySize=auto;html=1;entryX=0;entryY=0.5;entryDx=0;entryDy=0;labelBorderColor=none;endArrow=none;endFill=0;" parent="1" source="KAqysuzeB88MC8dRCDyG-24" target="KAqysuzeB88MC8dRCDyG-9" edge="1">
          <mxGeometry relative="1" as="geometry" />
        </mxCell>
        <mxCell id="KAqysuzeB88MC8dRCDyG-24" value="" style="line;strokeWidth=1;fillColor=none;align=left;verticalAlign=middle;spacingTop=-1;spacingLeft=3;spacingRight=3;rotatable=0;labelPosition=right;points=[];portConstraint=eastwest;" parent="1" vertex="1">
          <mxGeometry x="190" y="462" width="50" height="8" as="geometry" />
        </mxCell>
        <mxCell id="KAqysuzeB88MC8dRCDyG-28" style="edgeStyle=orthogonalEdgeStyle;curved=1;jumpStyle=none;orthogonalLoop=1;jettySize=auto;html=1;entryX=0;entryY=0.5;entryDx=0;entryDy=0;labelBorderColor=none;endArrow=none;endFill=0;" parent="1" source="KAqysuzeB88MC8dRCDyG-27" target="KAqysuzeB88MC8dRCDyG-6" edge="1">
          <mxGeometry relative="1" as="geometry" />
        </mxCell>
        <mxCell id="KAqysuzeB88MC8dRCDyG-27" value="" style="line;strokeWidth=1;fillColor=none;align=left;verticalAlign=middle;spacingTop=-1;spacingLeft=3;spacingRight=3;rotatable=0;labelPosition=right;points=[];portConstraint=eastwest;" parent="1" vertex="1">
          <mxGeometry x="190" y="454" width="40" height="8" as="geometry" />
        </mxCell>
        <mxCell id="KAqysuzeB88MC8dRCDyG-30" style="edgeStyle=orthogonalEdgeStyle;curved=1;jumpStyle=none;orthogonalLoop=1;jettySize=auto;html=1;entryX=1;entryY=0.5;entryDx=0;entryDy=0;labelBorderColor=none;endArrow=none;endFill=0;" parent="1" source="KAqysuzeB88MC8dRCDyG-29" target="KAqysuzeB88MC8dRCDyG-9" edge="1">
          <mxGeometry relative="1" as="geometry">
            <mxPoint x="429.99999999999227" y="640" as="targetPoint" />
          </mxGeometry>
        </mxCell>
        <mxCell id="KAqysuzeB88MC8dRCDyG-29" value="" style="line;strokeWidth=1;fillColor=none;align=left;verticalAlign=middle;spacingTop=-1;spacingLeft=3;spacingRight=3;rotatable=0;labelPosition=right;points=[];portConstraint=eastwest;" parent="1" vertex="1">
          <mxGeometry x="560" y="482" width="40" height="8" as="geometry" />
        </mxCell>
        <mxCell id="KAqysuzeB88MC8dRCDyG-32" style="edgeStyle=orthogonalEdgeStyle;curved=1;jumpStyle=none;orthogonalLoop=1;jettySize=auto;html=1;entryX=0;entryY=0.5;entryDx=0;entryDy=0;labelBorderColor=none;endArrow=none;endFill=0;" parent="1" source="KAqysuzeB88MC8dRCDyG-31" target="KAqysuzeB88MC8dRCDyG-5" edge="1">
          <mxGeometry relative="1" as="geometry" />
        </mxCell>
        <mxCell id="KAqysuzeB88MC8dRCDyG-31" value="" style="line;strokeWidth=1;fillColor=none;align=left;verticalAlign=middle;spacingTop=-1;spacingLeft=3;spacingRight=3;rotatable=0;labelPosition=right;points=[];portConstraint=eastwest;" parent="1" vertex="1">
          <mxGeometry x="190" y="446" width="40" height="8" as="geometry" />
        </mxCell>
        <mxCell id="KAqysuzeB88MC8dRCDyG-37" style="edgeStyle=orthogonalEdgeStyle;curved=1;jumpStyle=none;orthogonalLoop=1;jettySize=auto;html=1;entryX=1;entryY=0.5;entryDx=0;entryDy=0;labelBorderColor=none;endArrow=none;endFill=0;" parent="1" source="KAqysuzeB88MC8dRCDyG-36" target="KAqysuzeB88MC8dRCDyG-7" edge="1">
          <mxGeometry relative="1" as="geometry" />
        </mxCell>
        <mxCell id="KAqysuzeB88MC8dRCDyG-38" style="edgeStyle=orthogonalEdgeStyle;curved=1;jumpStyle=none;orthogonalLoop=1;jettySize=auto;html=1;entryX=0;entryY=0.5;entryDx=0;entryDy=0;labelBorderColor=none;endArrow=none;endFill=0;" parent="1" source="KAqysuzeB88MC8dRCDyG-36" target="KAqysuzeB88MC8dRCDyG-13" edge="1">
          <mxGeometry relative="1" as="geometry" />
        </mxCell>
        <mxCell id="KAqysuzeB88MC8dRCDyG-36" value="" style="line;strokeWidth=1;fillColor=none;align=left;verticalAlign=middle;spacingTop=-1;spacingLeft=3;spacingRight=3;rotatable=0;labelPosition=right;points=[];portConstraint=eastwest;" parent="1" vertex="1">
          <mxGeometry x="460" y="462" width="40" height="8" as="geometry" />
        </mxCell>
        <mxCell id="KAqysuzeB88MC8dRCDyG-40" value="End Game" style="ellipse;whiteSpace=wrap;html=1;" parent="1" vertex="1">
          <mxGeometry x="470" y="414" width="70" height="40" as="geometry" />
        </mxCell>
        <mxCell id="KAqysuzeB88MC8dRCDyG-43" style="edgeStyle=orthogonalEdgeStyle;curved=1;jumpStyle=none;orthogonalLoop=1;jettySize=auto;html=1;entryX=0;entryY=0.25;entryDx=0;entryDy=0;labelBorderColor=none;endArrow=none;endFill=0;" parent="1" source="KAqysuzeB88MC8dRCDyG-42" target="KAqysuzeB88MC8dRCDyG-13" edge="1">
          <mxGeometry relative="1" as="geometry" />
        </mxCell>
        <mxCell id="KAqysuzeB88MC8dRCDyG-42" value="" style="line;strokeWidth=1;fillColor=none;align=left;verticalAlign=middle;spacingTop=-1;spacingLeft=3;spacingRight=3;rotatable=0;labelPosition=right;points=[];portConstraint=eastwest;" parent="1" vertex="1">
          <mxGeometry x="540" y="430" width="40" height="8" as="geometry" />
        </mxCell>
      </root>
    </mxGraphModel>
  </diagram>
  <diagram id="UFvkIP7NUzJBwFXyZ6gi" name="SSD(Manage Map)">
    <mxGraphModel dx="1967" dy="1129" grid="1" gridSize="10" guides="1" tooltips="1" connect="1" arrows="1" fold="1" page="1" pageScale="1" pageWidth="827" pageHeight="1169" math="0" shadow="0">
      <root>
        <mxCell id="0" />
        <mxCell id="1" parent="0" />
        <mxCell id="YUJL9wxljWH0plLMEEla-2" value="&lt;hr&gt;&lt;hr&gt;&lt;hr&gt;" style="shape=umlLifeline;participant=umlActor;perimeter=lifelinePerimeter;whiteSpace=wrap;html=1;container=1;collapsible=0;recursiveResize=0;verticalAlign=top;spacingTop=36;outlineConnect=0;size=60;" parent="1" vertex="1">
          <mxGeometry x="94" y="270" width="40" height="530" as="geometry" />
        </mxCell>
        <mxCell id="YUJL9wxljWH0plLMEEla-3" value=":Board Game System" style="shape=umlLifeline;perimeter=lifelinePerimeter;whiteSpace=wrap;html=1;container=1;collapsible=0;recursiveResize=0;outlineConnect=0;" parent="1" vertex="1">
          <mxGeometry x="364" y="270" width="100" height="530" as="geometry" />
        </mxCell>
        <mxCell id="YUJL9wxljWH0plLMEEla-4" value=":Player" style="text;align=center;fontStyle=0;verticalAlign=middle;spacingLeft=3;spacingRight=3;strokeColor=none;rotatable=0;points=[[0,0.5],[1,0.5]];portConstraint=eastwest;" parent="1" vertex="1">
          <mxGeometry x="74" y="240" width="80" height="26" as="geometry" />
        </mxCell>
        <mxCell id="YUJL9wxljWH0plLMEEla-5" value="Manage Map" style="text;align=center;fontStyle=7;verticalAlign=middle;spacingLeft=3;spacingRight=3;strokeColor=none;rotatable=0;points=[[0,0.5],[1,0.5]];portConstraint=eastwest;" parent="1" vertex="1">
          <mxGeometry x="335" y="200" width="166" height="26" as="geometry" />
        </mxCell>
        <mxCell id="YUJL9wxljWH0plLMEEla-6" value="changeMap(changeMapValue)" style="html=1;verticalAlign=bottom;endArrow=block;labelBorderColor=none;curved=1;jumpStyle=none;" parent="1" edge="1">
          <mxGeometry width="80" relative="1" as="geometry">
            <mxPoint x="113.5" y="369" as="sourcePoint" />
            <mxPoint x="413.5" y="369" as="targetPoint" />
            <Array as="points">
              <mxPoint x="294" y="369" />
            </Array>
          </mxGeometry>
        </mxCell>
        <mxCell id="YUJL9wxljWH0plLMEEla-8" value="alt" style="shape=umlFrame;whiteSpace=wrap;html=1;" parent="1" vertex="1">
          <mxGeometry x="44" y="398" width="740" height="372" as="geometry" />
        </mxCell>
        <mxCell id="YUJL9wxljWH0plLMEEla-9" value="[changeMapValue == &quot;Y&quot;]" style="text;align=center;fontStyle=0;verticalAlign=middle;spacingLeft=3;spacingRight=3;strokeColor=none;rotatable=0;points=[[0,0.5],[1,0.5]];portConstraint=eastwest;" parent="1" vertex="1">
          <mxGeometry x="154" y="399" width="80" height="26" as="geometry" />
        </mxCell>
        <mxCell id="YUJL9wxljWH0plLMEEla-10" value="" style="line;strokeWidth=1.5;fillColor=none;align=left;verticalAlign=middle;spacingTop=-1;spacingLeft=3;spacingRight=3;rotatable=0;labelPosition=right;points=[];portConstraint=eastwest;dashed=1;" parent="1" vertex="1">
          <mxGeometry x="44" y="619" width="740" height="8" as="geometry" />
        </mxCell>
        <mxCell id="YUJL9wxljWH0plLMEEla-12" value="showMaps" style="html=1;verticalAlign=bottom;endArrow=block;labelBorderColor=none;curved=1;jumpStyle=none;" parent="1" edge="1">
          <mxGeometry width="80" relative="1" as="geometry">
            <mxPoint x="113.5" y="459" as="sourcePoint" />
            <mxPoint x="413.5" y="459" as="targetPoint" />
            <Array as="points">
              <mxPoint x="274" y="459" />
            </Array>
          </mxGeometry>
        </mxCell>
        <mxCell id="YUJL9wxljWH0plLMEEla-14" value="&lt;hr&gt;&lt;hr&gt;&lt;hr&gt;" style="shape=umlLifeline;participant=umlActor;perimeter=lifelinePerimeter;whiteSpace=wrap;html=1;container=1;collapsible=0;recursiveResize=0;verticalAlign=top;spacingTop=36;outlineConnect=0;size=60;" parent="1" vertex="1">
          <mxGeometry x="684" y="270" width="40" height="530" as="geometry" />
        </mxCell>
        <mxCell id="YUJL9wxljWH0plLMEEla-15" value=":Game Master" style="text;align=center;fontStyle=0;verticalAlign=middle;spacingLeft=3;spacingRight=3;strokeColor=none;rotatable=0;points=[[0,0.5],[1,0.5]];portConstraint=eastwest;" parent="1" vertex="1">
          <mxGeometry x="664" y="240" width="80" height="26" as="geometry" />
        </mxCell>
        <mxCell id="YUJL9wxljWH0plLMEEla-20" value="createMap(mapIndex)" style="html=1;verticalAlign=bottom;endArrow=block;labelBorderColor=none;curved=1;jumpStyle=none;" parent="1" edge="1">
          <mxGeometry width="80" relative="1" as="geometry">
            <mxPoint x="703.5" y="600" as="sourcePoint" />
            <mxPoint x="413.5" y="600" as="targetPoint" />
            <Array as="points">
              <mxPoint x="594" y="600" />
              <mxPoint x="564" y="600" />
            </Array>
          </mxGeometry>
        </mxCell>
        <mxCell id="YUJL9wxljWH0plLMEEla-21" value="[changeMapValue == &quot;N&quot;]" style="text;align=center;fontStyle=0;verticalAlign=middle;spacingLeft=3;spacingRight=3;strokeColor=none;rotatable=0;points=[[0,0.5],[1,0.5]];portConstraint=eastwest;" parent="1" vertex="1">
          <mxGeometry x="154" y="627" width="80" height="26" as="geometry" />
        </mxCell>
        <mxCell id="YUJL9wxljWH0plLMEEla-23" value="createMap(defaultMapIndex)" style="html=1;verticalAlign=bottom;endArrow=block;labelBorderColor=none;curved=1;jumpStyle=none;" parent="1" edge="1">
          <mxGeometry width="80" relative="1" as="geometry">
            <mxPoint x="703.5" y="709" as="sourcePoint" />
            <mxPoint x="413.5" y="709" as="targetPoint" />
            <Array as="points">
              <mxPoint x="564" y="709" />
            </Array>
          </mxGeometry>
        </mxCell>
        <mxCell id="FvBIzFH1PL3MbHjsJSkA-1" value="maps" style="html=1;verticalAlign=bottom;endArrow=open;dashed=1;endSize=8;labelBorderColor=none;curved=1;jumpStyle=none;" edge="1" parent="1">
          <mxGeometry relative="1" as="geometry">
            <mxPoint x="413.5" y="495" as="sourcePoint" />
            <mxPoint x="113.5" y="495" as="targetPoint" />
            <Array as="points">
              <mxPoint x="290" y="495" />
            </Array>
          </mxGeometry>
        </mxCell>
        <mxCell id="FvBIzFH1PL3MbHjsJSkA-2" value="selectMap(mapIndex)" style="html=1;verticalAlign=bottom;endArrow=block;labelBorderColor=none;curved=1;jumpStyle=none;" edge="1" parent="1">
          <mxGeometry width="80" relative="1" as="geometry">
            <mxPoint x="113.5" y="535" as="sourcePoint" />
            <mxPoint x="413.5" y="535" as="targetPoint" />
            <Array as="points">
              <mxPoint x="290" y="535" />
              <mxPoint x="310" y="535" />
            </Array>
          </mxGeometry>
        </mxCell>
        <mxCell id="FvBIzFH1PL3MbHjsJSkA-3" value="mapIndex" style="html=1;verticalAlign=bottom;endArrow=open;dashed=1;endSize=8;labelBorderColor=none;curved=1;jumpStyle=none;" edge="1" parent="1">
          <mxGeometry relative="1" as="geometry">
            <mxPoint x="413.5" y="565" as="sourcePoint" />
            <mxPoint x="703.5" y="565" as="targetPoint" />
          </mxGeometry>
        </mxCell>
        <mxCell id="FvBIzFH1PL3MbHjsJSkA-5" value="defaultMapIndex" style="html=1;verticalAlign=bottom;endArrow=open;dashed=1;endSize=8;labelBorderColor=none;curved=1;jumpStyle=none;" edge="1" parent="1">
          <mxGeometry relative="1" as="geometry">
            <mxPoint x="414" y="669" as="sourcePoint" />
            <mxPoint x="704" y="669" as="targetPoint" />
          </mxGeometry>
        </mxCell>
        <mxCell id="ruLCFtiRFi5zu5Dpr1fb-1" value="map" style="html=1;verticalAlign=bottom;endArrow=open;dashed=1;endSize=8;labelBorderColor=none;jumpStyle=none;" edge="1" parent="1" source="YUJL9wxljWH0plLMEEla-3" target="YUJL9wxljWH0plLMEEla-14">
          <mxGeometry relative="1" as="geometry">
            <mxPoint x="450" y="570" as="sourcePoint" />
            <mxPoint x="370" y="570" as="targetPoint" />
            <Array as="points">
              <mxPoint x="560" y="750" />
            </Array>
          </mxGeometry>
        </mxCell>
      </root>
    </mxGraphModel>
  </diagram>
  <diagram id="Z5-p9xSS913pPfyvsrrB" name="SSD(Rest)">
    <mxGraphModel dx="1967" dy="1129" grid="1" gridSize="10" guides="1" tooltips="1" connect="1" arrows="1" fold="1" page="1" pageScale="1" pageWidth="827" pageHeight="1169" math="0" shadow="0">
      <root>
        <mxCell id="0" />
        <mxCell id="1" parent="0" />
        <mxCell id="MRHwtZFH7PRFun5NlS9D-1" value="&lt;hr&gt;&lt;hr&gt;&lt;hr&gt;" style="shape=umlLifeline;participant=umlActor;perimeter=lifelinePerimeter;whiteSpace=wrap;html=1;container=1;collapsible=0;recursiveResize=0;verticalAlign=top;spacingTop=36;outlineConnect=0;size=60;" vertex="1" parent="1">
          <mxGeometry x="230" y="300" width="40" height="430" as="geometry" />
        </mxCell>
        <mxCell id="MRHwtZFH7PRFun5NlS9D-2" value=":Board Game System" style="shape=umlLifeline;perimeter=lifelinePerimeter;whiteSpace=wrap;html=1;container=1;collapsible=0;recursiveResize=0;outlineConnect=0;" vertex="1" parent="1">
          <mxGeometry x="500" y="300" width="100" height="430" as="geometry" />
        </mxCell>
        <mxCell id="MRHwtZFH7PRFun5NlS9D-3" value=":Player" style="text;align=center;fontStyle=0;verticalAlign=middle;spacingLeft=3;spacingRight=3;strokeColor=none;rotatable=0;points=[[0,0.5],[1,0.5]];portConstraint=eastwest;" vertex="1" parent="1">
          <mxGeometry x="210" y="270" width="80" height="26" as="geometry" />
        </mxCell>
        <mxCell id="MRHwtZFH7PRFun5NlS9D-4" value="Rest" style="text;align=center;fontStyle=7;verticalAlign=middle;spacingLeft=3;spacingRight=3;strokeColor=none;rotatable=0;points=[[0,0.5],[1,0.5]];portConstraint=eastwest;" vertex="1" parent="1">
          <mxGeometry x="320" y="274" width="166" height="26" as="geometry" />
        </mxCell>
        <mxCell id="MRHwtZFH7PRFun5NlS9D-5" value="selectRest" style="html=1;verticalAlign=bottom;endArrow=block;labelBorderColor=none;curved=1;jumpStyle=none;" edge="1" parent="1" source="MRHwtZFH7PRFun5NlS9D-1" target="MRHwtZFH7PRFun5NlS9D-2">
          <mxGeometry width="80" relative="1" as="geometry">
            <mxPoint x="363" y="470" as="sourcePoint" />
            <mxPoint x="443" y="470" as="targetPoint" />
            <Array as="points">
              <mxPoint x="430" y="380" />
            </Array>
          </mxGeometry>
        </mxCell>
        <mxCell id="MRHwtZFH7PRFun5NlS9D-6" value="bridgecard number" style="html=1;verticalAlign=bottom;endArrow=open;dashed=1;endSize=8;labelBorderColor=none;curved=1;jumpStyle=none;align=center;" edge="1" parent="1" source="MRHwtZFH7PRFun5NlS9D-2" target="MRHwtZFH7PRFun5NlS9D-1">
          <mxGeometry x="0.1147" relative="1" as="geometry">
            <mxPoint x="440" y="670" as="sourcePoint" />
            <mxPoint x="360" y="670" as="targetPoint" />
            <Array as="points">
              <mxPoint x="420" y="420" />
              <mxPoint x="440" y="420" />
            </Array>
            <mxPoint as="offset" />
          </mxGeometry>
        </mxCell>
        <mxCell id="CRigPXIsyJ9y9t34rALK-1" value="alt" style="shape=umlFrame;whiteSpace=wrap;html=1;" vertex="1" parent="1">
          <mxGeometry x="180" y="450" width="440" height="240" as="geometry" />
        </mxCell>
        <mxCell id="CRigPXIsyJ9y9t34rALK-2" value="[BridgeCardNum &lt; 1]" style="text;align=center;fontStyle=0;verticalAlign=middle;spacingLeft=3;spacingRight=3;strokeColor=none;rotatable=0;points=[[0,0.5],[1,0.5]];portConstraint=eastwest;" vertex="1" parent="1">
          <mxGeometry x="280" y="450" width="80" height="26" as="geometry" />
        </mxCell>
        <mxCell id="CRigPXIsyJ9y9t34rALK-4" value="" style="line;strokeWidth=1.5;fillColor=none;align=left;verticalAlign=middle;spacingTop=-1;spacingLeft=3;spacingRight=3;rotatable=0;labelPosition=right;points=[];portConstraint=eastwest;dashed=1;" vertex="1" parent="1">
          <mxGeometry x="181" y="541" width="440" height="8" as="geometry" />
        </mxCell>
        <mxCell id="CRigPXIsyJ9y9t34rALK-6" value="[else]" style="text;align=center;fontStyle=0;verticalAlign=middle;spacingLeft=3;spacingRight=3;strokeColor=none;rotatable=0;points=[[0,0.5],[1,0.5]];portConstraint=eastwest;" vertex="1" parent="1">
          <mxGeometry x="240" y="549" width="80" height="26" as="geometry" />
        </mxCell>
        <mxCell id="81QEHMggPgSZfvJ1IiAz-1" value="removeBridgeCard" style="html=1;verticalAlign=bottom;endArrow=block;labelBorderColor=none;curved=1;jumpStyle=none;" edge="1" parent="1">
          <mxGeometry width="80" relative="1" as="geometry">
            <mxPoint x="249.5" y="604" as="sourcePoint" />
            <mxPoint x="549.5" y="604" as="targetPoint" />
            <Array as="points">
              <mxPoint x="400" y="604" />
            </Array>
          </mxGeometry>
        </mxCell>
        <mxCell id="81QEHMggPgSZfvJ1IiAz-2" value="bridgecard number" style="html=1;verticalAlign=bottom;endArrow=open;dashed=1;endSize=8;labelBorderColor=none;curved=1;jumpStyle=none;" edge="1" parent="1">
          <mxGeometry relative="1" as="geometry">
            <mxPoint x="549.5" y="650" as="sourcePoint" />
            <mxPoint x="249.5" y="650" as="targetPoint" />
            <Array as="points">
              <mxPoint x="400" y="650" />
            </Array>
          </mxGeometry>
        </mxCell>
        <mxCell id="Nn9ujjDutWip6KXiJSBP-1" value="rollDice" style="html=1;verticalAlign=bottom;endArrow=block;labelBorderColor=none;curved=1;jumpStyle=none;" edge="1" parent="1">
          <mxGeometry width="80" relative="1" as="geometry">
            <mxPoint x="252" y="510" as="sourcePoint" />
            <mxPoint x="552" y="510" as="targetPoint" />
            <Array as="points">
              <mxPoint x="432.5" y="510" />
            </Array>
          </mxGeometry>
        </mxCell>
      </root>
    </mxGraphModel>
  </diagram>
  <diagram id="EPtX2PLqDlb_Uo6xrgb-" name="SSD(Move)">
    <mxGraphModel dx="1967" dy="1129" grid="1" gridSize="10" guides="1" tooltips="1" connect="1" arrows="1" fold="1" page="1" pageScale="1" pageWidth="827" pageHeight="1169" math="0" shadow="0">
      <root>
        <mxCell id="0" />
        <mxCell id="1" parent="0" />
        <mxCell id="ySgxbG1j5uMNU-PPalfV-1" value="&lt;hr&gt;&lt;hr&gt;&lt;hr&gt;" style="shape=umlLifeline;participant=umlActor;perimeter=lifelinePerimeter;whiteSpace=wrap;html=1;container=1;collapsible=0;recursiveResize=0;verticalAlign=top;spacingTop=36;outlineConnect=0;size=60;" parent="1" vertex="1">
          <mxGeometry x="241" y="230" width="40" height="590" as="geometry" />
        </mxCell>
        <mxCell id="ySgxbG1j5uMNU-PPalfV-2" value=":Board Game System" style="shape=umlLifeline;perimeter=lifelinePerimeter;whiteSpace=wrap;html=1;container=1;collapsible=0;recursiveResize=0;outlineConnect=0;" parent="1" vertex="1">
          <mxGeometry x="511" y="230" width="100" height="590" as="geometry" />
        </mxCell>
        <mxCell id="ySgxbG1j5uMNU-PPalfV-3" value=":Player" style="text;align=center;fontStyle=0;verticalAlign=middle;spacingLeft=3;spacingRight=3;strokeColor=none;rotatable=0;points=[[0,0.5],[1,0.5]];portConstraint=eastwest;" parent="1" vertex="1">
          <mxGeometry x="221" y="200" width="80" height="26" as="geometry" />
        </mxCell>
        <mxCell id="ySgxbG1j5uMNU-PPalfV-4" value="Move" style="text;align=center;fontStyle=7;verticalAlign=middle;spacingLeft=3;spacingRight=3;strokeColor=none;rotatable=0;points=[[0,0.5],[1,0.5]];portConstraint=eastwest;" parent="1" vertex="1">
          <mxGeometry x="331" y="204" width="166" height="26" as="geometry" />
        </mxCell>
        <mxCell id="ySgxbG1j5uMNU-PPalfV-7" value="alt" style="shape=umlFrame;whiteSpace=wrap;html=1;" parent="1" vertex="1">
          <mxGeometry x="120" y="410" width="570" height="380" as="geometry" />
        </mxCell>
        <mxCell id="ySgxbG1j5uMNU-PPalfV-8" value="[Dice Number &gt;= 1]" style="text;align=center;fontStyle=0;verticalAlign=middle;spacingLeft=3;spacingRight=3;strokeColor=none;rotatable=0;points=[[0,0.5],[1,0.5]];portConstraint=eastwest;" parent="1" vertex="1">
          <mxGeometry x="141" y="440" width="80" height="26" as="geometry" />
        </mxCell>
        <mxCell id="ySgxbG1j5uMNU-PPalfV-9" value="" style="line;strokeWidth=1.5;fillColor=none;align=left;verticalAlign=middle;spacingTop=-1;spacingLeft=3;spacingRight=3;rotatable=0;labelPosition=right;points=[];portConstraint=eastwest;dashed=1;" parent="1" vertex="1">
          <mxGeometry x="120" y="710" width="570" height="8" as="geometry" />
        </mxCell>
        <mxCell id="ySgxbG1j5uMNU-PPalfV-11" value="[else]" style="text;align=center;fontStyle=0;verticalAlign=middle;spacingLeft=3;spacingRight=3;strokeColor=none;rotatable=0;points=[[0,0.5],[1,0.5]];portConstraint=eastwest;" parent="1" vertex="1">
          <mxGeometry x="100" y="721" width="80" height="26" as="geometry" />
        </mxCell>
        <mxCell id="R5GwALdidQjaaCR9F7bQ-1" value="selectMove" style="html=1;verticalAlign=bottom;endArrow=block;labelBorderColor=none;curved=1;jumpStyle=none;" parent="1" source="ySgxbG1j5uMNU-PPalfV-1" target="ySgxbG1j5uMNU-PPalfV-2" edge="1">
          <mxGeometry width="80" relative="1" as="geometry">
            <mxPoint x="381" y="500" as="sourcePoint" />
            <mxPoint x="461" y="500" as="targetPoint" />
            <Array as="points">
              <mxPoint x="441" y="310" />
            </Array>
          </mxGeometry>
        </mxCell>
        <mxCell id="IjdXXnnHmpHA0PwBfc_7-1" value="rollDice" style="html=1;verticalAlign=bottom;endArrow=block;labelBorderColor=none;curved=1;jumpStyle=none;" parent="1" source="ySgxbG1j5uMNU-PPalfV-1" target="ySgxbG1j5uMNU-PPalfV-2" edge="1">
          <mxGeometry width="80" relative="1" as="geometry">
            <mxPoint x="381" y="500" as="sourcePoint" />
            <mxPoint x="461" y="500" as="targetPoint" />
            <Array as="points">
              <mxPoint x="441" y="350" />
            </Array>
          </mxGeometry>
        </mxCell>
        <mxCell id="IjdXXnnHmpHA0PwBfc_7-3" value="dice number" style="html=1;verticalAlign=bottom;endArrow=open;dashed=1;endSize=8;labelBorderColor=none;curved=1;jumpStyle=none;" parent="1" source="ySgxbG1j5uMNU-PPalfV-2" target="ySgxbG1j5uMNU-PPalfV-1" edge="1">
          <mxGeometry relative="1" as="geometry">
            <mxPoint x="461" y="500" as="sourcePoint" />
            <mxPoint x="381" y="500" as="targetPoint" />
            <Array as="points">
              <mxPoint x="431" y="390" />
            </Array>
          </mxGeometry>
        </mxCell>
        <mxCell id="IjdXXnnHmpHA0PwBfc_7-6" value="loop(1,*)" style="shape=umlFrame;whiteSpace=wrap;html=1;strokeWidth=1;" parent="1" vertex="1">
          <mxGeometry x="180" y="485" width="460" height="135" as="geometry" />
        </mxCell>
        <mxCell id="IjdXXnnHmpHA0PwBfc_7-7" value="[Correct moveCommand]" style="text;align=center;fontStyle=0;verticalAlign=middle;spacingLeft=3;spacingRight=3;strokeColor=none;rotatable=0;points=[[0,0.5],[1,0.5]];portConstraint=eastwest;" parent="1" vertex="1">
          <mxGeometry x="300" y="485" width="80" height="26" as="geometry" />
        </mxCell>
        <mxCell id="IjdXXnnHmpHA0PwBfc_7-8" value="move(moveCommand)" style="html=1;verticalAlign=bottom;endArrow=block;labelBorderColor=none;curved=1;jumpStyle=none;" parent="1" source="ySgxbG1j5uMNU-PPalfV-1" target="ySgxbG1j5uMNU-PPalfV-2" edge="1">
          <mxGeometry width="80" relative="1" as="geometry">
            <mxPoint x="370" y="560" as="sourcePoint" />
            <mxPoint x="450" y="560" as="targetPoint" />
            <Array as="points">
              <mxPoint x="440" y="540" />
            </Array>
          </mxGeometry>
        </mxCell>
        <mxCell id="IjdXXnnHmpHA0PwBfc_7-9" value="move result" style="html=1;verticalAlign=bottom;endArrow=open;dashed=1;endSize=8;labelBorderColor=none;curved=1;jumpStyle=none;" parent="1" source="ySgxbG1j5uMNU-PPalfV-2" target="ySgxbG1j5uMNU-PPalfV-1" edge="1">
          <mxGeometry relative="1" as="geometry">
            <mxPoint x="450" y="560" as="sourcePoint" />
            <mxPoint x="370" y="560" as="targetPoint" />
            <Array as="points">
              <mxPoint x="450" y="580" />
            </Array>
          </mxGeometry>
        </mxCell>
        <mxCell id="IjdXXnnHmpHA0PwBfc_7-11" value="changeLocation/CardInfo" style="html=1;verticalAlign=bottom;endArrow=block;labelBorderColor=none;curved=1;jumpStyle=none;" parent="1" source="ySgxbG1j5uMNU-PPalfV-1" target="ySgxbG1j5uMNU-PPalfV-2" edge="1">
          <mxGeometry width="80" relative="1" as="geometry">
            <mxPoint x="370" y="560" as="sourcePoint" />
            <mxPoint x="450" y="560" as="targetPoint" />
            <Array as="points">
              <mxPoint x="410" y="650" />
            </Array>
          </mxGeometry>
        </mxCell>
        <mxCell id="mQirWtXw0nK6R-mchBgX-1" value="location/card info" style="html=1;verticalAlign=bottom;endArrow=open;dashed=1;endSize=8;labelBorderColor=none;curved=1;jumpStyle=none;" parent="1" source="ySgxbG1j5uMNU-PPalfV-2" target="ySgxbG1j5uMNU-PPalfV-1" edge="1">
          <mxGeometry relative="1" as="geometry">
            <mxPoint x="450" y="560" as="sourcePoint" />
            <mxPoint x="370" y="560" as="targetPoint" />
            <Array as="points">
              <mxPoint x="490" y="690" />
            </Array>
          </mxGeometry>
        </mxCell>
        <mxCell id="mQirWtXw0nK6R-mchBgX-2" value="callNextPlayer" style="html=1;verticalAlign=bottom;endArrow=block;labelBorderColor=none;curved=1;jumpStyle=none;" parent="1" edge="1">
          <mxGeometry width="80" relative="1" as="geometry">
            <mxPoint x="262" y="760" as="sourcePoint" />
            <mxPoint x="562" y="760" as="targetPoint" />
            <Array as="points">
              <mxPoint x="411.5" y="760" />
            </Array>
          </mxGeometry>
        </mxCell>
      </root>
    </mxGraphModel>
  </diagram>
  <diagram id="i-8mVlpA1HlMUhJPpL4R" name="SSD(Manage Player)">
    <mxGraphModel dx="1967" dy="1129" grid="1" gridSize="10" guides="1" tooltips="1" connect="1" arrows="1" fold="1" page="1" pageScale="1" pageWidth="827" pageHeight="1169" math="0" shadow="0">
      <root>
        <mxCell id="0" />
        <mxCell id="1" parent="0" />
        <mxCell id="EmM1BYNexcakWjbPYIol-1" value="&lt;hr&gt;&lt;hr&gt;&lt;hr&gt;" style="shape=umlLifeline;participant=umlActor;perimeter=lifelinePerimeter;whiteSpace=wrap;html=1;container=1;collapsible=0;recursiveResize=0;verticalAlign=top;spacingTop=36;outlineConnect=0;size=60;" parent="1" vertex="1">
          <mxGeometry x="230" y="300" width="40" height="370" as="geometry" />
        </mxCell>
        <mxCell id="EmM1BYNexcakWjbPYIol-2" value=":Board Game System" style="shape=umlLifeline;perimeter=lifelinePerimeter;whiteSpace=wrap;html=1;container=1;collapsible=0;recursiveResize=0;outlineConnect=0;" parent="1" vertex="1">
          <mxGeometry x="500" y="300" width="100" height="370" as="geometry" />
        </mxCell>
        <mxCell id="EmM1BYNexcakWjbPYIol-3" value=":Game Master" style="text;align=center;fontStyle=0;verticalAlign=middle;spacingLeft=3;spacingRight=3;strokeColor=none;rotatable=0;points=[[0,0.5],[1,0.5]];portConstraint=eastwest;" parent="1" vertex="1">
          <mxGeometry x="210" y="270" width="80" height="26" as="geometry" />
        </mxCell>
        <mxCell id="EmM1BYNexcakWjbPYIol-4" value="Manage Player" style="text;align=center;fontStyle=7;verticalAlign=middle;spacingLeft=3;spacingRight=3;strokeColor=none;rotatable=0;points=[[0,0.5],[1,0.5]];portConstraint=eastwest;whiteSpace=wrap;" parent="1" vertex="1">
          <mxGeometry x="320" y="274" width="166" height="26" as="geometry" />
        </mxCell>
        <mxCell id="EmM1BYNexcakWjbPYIol-5" value="checkPlayer" style="html=1;verticalAlign=bottom;endArrow=block;labelBorderColor=none;curved=1;jumpStyle=none;" parent="1" source="EmM1BYNexcakWjbPYIol-1" target="EmM1BYNexcakWjbPYIol-2" edge="1">
          <mxGeometry width="80" relative="1" as="geometry">
            <mxPoint x="363" y="470" as="sourcePoint" />
            <mxPoint x="443" y="470" as="targetPoint" />
            <Array as="points">
              <mxPoint x="430" y="380" />
            </Array>
          </mxGeometry>
        </mxCell>
        <mxCell id="EmM1BYNexcakWjbPYIol-7" value="opt" style="shape=umlFrame;whiteSpace=wrap;html=1;" parent="1" vertex="1">
          <mxGeometry x="180" y="448" width="440" height="92" as="geometry" />
        </mxCell>
        <mxCell id="EmM1BYNexcakWjbPYIol-8" value="[Player is ended]" style="text;align=center;fontStyle=0;verticalAlign=middle;spacingLeft=3;spacingRight=3;strokeColor=none;rotatable=0;points=[[0,0.5],[1,0.5]];portConstraint=eastwest;" parent="1" vertex="1">
          <mxGeometry x="267" y="448" width="80" height="26" as="geometry" />
        </mxCell>
        <mxCell id="EmM1BYNexcakWjbPYIol-14" value="player infos" style="html=1;verticalAlign=bottom;endArrow=open;dashed=1;endSize=8;labelBorderColor=none;curved=1;jumpStyle=none;" parent="1" source="EmM1BYNexcakWjbPYIol-2" target="EmM1BYNexcakWjbPYIol-1" edge="1">
          <mxGeometry relative="1" as="geometry">
            <mxPoint x="450" y="570" as="sourcePoint" />
            <mxPoint x="370" y="570" as="targetPoint" />
            <Array as="points">
              <mxPoint x="460" y="420" />
            </Array>
          </mxGeometry>
        </mxCell>
        <mxCell id="LCZDgazMW3XWG9YIMhXU-1" value="removePlayer" style="html=1;verticalAlign=bottom;endArrow=block;labelBorderColor=none;curved=1;jumpStyle=none;" parent="1" edge="1">
          <mxGeometry width="80" relative="1" as="geometry">
            <mxPoint x="249.5" y="496" as="sourcePoint" />
            <mxPoint x="549.5" y="496" as="targetPoint" />
          </mxGeometry>
        </mxCell>
        <mxCell id="5ZavaBvXzFcFYaP87ajE-1" value="printPlayerInfos" style="html=1;verticalAlign=bottom;endArrow=block;labelBorderColor=none;curved=1;jumpStyle=none;" parent="1" edge="1">
          <mxGeometry width="80" relative="1" as="geometry">
            <mxPoint x="249.5" y="571" as="sourcePoint" />
            <mxPoint x="549.5" y="571" as="targetPoint" />
            <Array as="points">
              <mxPoint x="460" y="571" />
            </Array>
          </mxGeometry>
        </mxCell>
        <mxCell id="TaAPJ0nVHiW4J_QbiHNE-1" value="number of ingame players" style="html=1;verticalAlign=bottom;endArrow=open;dashed=1;endSize=8;labelBorderColor=none;curved=1;jumpStyle=none;" parent="1" edge="1">
          <mxGeometry relative="1" as="geometry">
            <mxPoint x="550" y="649" as="sourcePoint" />
            <mxPoint x="250" y="649" as="targetPoint" />
            <Array as="points">
              <mxPoint x="410.5" y="649" />
            </Array>
          </mxGeometry>
        </mxCell>
        <mxCell id="TaAPJ0nVHiW4J_QbiHNE-2" value="checkEndCondition" style="html=1;verticalAlign=bottom;endArrow=block;labelBorderColor=none;curved=1;jumpStyle=none;" parent="1" edge="1">
          <mxGeometry width="80" relative="1" as="geometry">
            <mxPoint x="250" y="610" as="sourcePoint" />
            <mxPoint x="550" y="610" as="targetPoint" />
            <Array as="points">
              <mxPoint x="460.5" y="610" />
            </Array>
          </mxGeometry>
        </mxCell>
      </root>
    </mxGraphModel>
  </diagram>
  <diagram id="ncuMwGtQuwYGQ__MWRRr" name="SSD(End Game)">
    <mxGraphModel dx="1967" dy="1129" grid="1" gridSize="10" guides="1" tooltips="1" connect="1" arrows="1" fold="1" page="1" pageScale="1" pageWidth="827" pageHeight="1169" math="0" shadow="0">
      <root>
        <mxCell id="0" />
        <mxCell id="1" parent="0" />
        <mxCell id="Av2ANWnZRCz7_yHlXXEF-1" value="&lt;hr&gt;&lt;hr&gt;&lt;hr&gt;" style="shape=umlLifeline;participant=umlActor;perimeter=lifelinePerimeter;whiteSpace=wrap;html=1;container=1;collapsible=0;recursiveResize=0;verticalAlign=top;spacingTop=36;outlineConnect=0;size=60;" parent="1" vertex="1">
          <mxGeometry x="239" y="370" width="40" height="280" as="geometry" />
        </mxCell>
        <mxCell id="Av2ANWnZRCz7_yHlXXEF-2" value=":Board Game System" style="shape=umlLifeline;perimeter=lifelinePerimeter;whiteSpace=wrap;html=1;container=1;collapsible=0;recursiveResize=0;outlineConnect=0;" parent="1" vertex="1">
          <mxGeometry x="509" y="370" width="100" height="280" as="geometry" />
        </mxCell>
        <mxCell id="Av2ANWnZRCz7_yHlXXEF-3" value=":Game Master" style="text;align=center;fontStyle=0;verticalAlign=middle;spacingLeft=3;spacingRight=3;strokeColor=none;rotatable=0;points=[[0,0.5],[1,0.5]];portConstraint=eastwest;" parent="1" vertex="1">
          <mxGeometry x="219" y="340" width="80" height="26" as="geometry" />
        </mxCell>
        <mxCell id="Av2ANWnZRCz7_yHlXXEF-4" value="End Game" style="text;align=center;fontStyle=7;verticalAlign=middle;spacingLeft=3;spacingRight=3;strokeColor=none;rotatable=0;points=[[0,0.5],[1,0.5]];portConstraint=eastwest;" parent="1" vertex="1">
          <mxGeometry x="329" y="344" width="166" height="26" as="geometry" />
        </mxCell>
        <mxCell id="Av2ANWnZRCz7_yHlXXEF-13" value="printWinner" style="html=1;verticalAlign=bottom;endArrow=block;labelBorderColor=none;curved=1;jumpStyle=none;" parent="1" edge="1">
          <mxGeometry width="80" relative="1" as="geometry">
            <mxPoint x="260" y="534" as="sourcePoint" />
            <mxPoint x="560" y="534" as="targetPoint" />
            <Array as="points">
              <mxPoint x="440.5" y="534" />
            </Array>
          </mxGeometry>
        </mxCell>
        <mxCell id="0GcbpAofp7l7f5xtCrhy-1" value="players points, winner" style="html=1;verticalAlign=bottom;endArrow=open;dashed=1;endSize=8;labelBorderColor=none;curved=1;jumpStyle=none;" parent="1" edge="1">
          <mxGeometry relative="1" as="geometry">
            <mxPoint x="558.5" y="495" as="sourcePoint" />
            <mxPoint x="258.5" y="495" as="targetPoint" />
            <Array as="points">
              <mxPoint x="419" y="495" />
            </Array>
          </mxGeometry>
        </mxCell>
        <mxCell id="598ym8m9DZtdTDm71Bby-2" value="calculatePlayersPoints" style="html=1;verticalAlign=bottom;endArrow=block;labelBorderColor=none;curved=1;jumpStyle=none;" parent="1" edge="1">
          <mxGeometry width="80" relative="1" as="geometry">
            <mxPoint x="260" y="460" as="sourcePoint" />
            <mxPoint x="560" y="460" as="targetPoint" />
            <Array as="points">
              <mxPoint x="440.5" y="460" />
            </Array>
          </mxGeometry>
        </mxCell>
        <mxCell id="598ym8m9DZtdTDm71Bby-3" value="printPlayersPoints" style="html=1;verticalAlign=bottom;endArrow=block;labelBorderColor=none;curved=1;jumpStyle=none;" parent="1" edge="1">
          <mxGeometry width="80" relative="1" as="geometry">
            <mxPoint x="260" y="570" as="sourcePoint" />
            <mxPoint x="560" y="570" as="targetPoint" />
            <Array as="points">
              <mxPoint x="440.5" y="570" />
            </Array>
          </mxGeometry>
        </mxCell>
        <mxCell id="598ym8m9DZtdTDm71Bby-4" value="endProgram" style="html=1;verticalAlign=bottom;endArrow=block;labelBorderColor=none;curved=1;jumpStyle=none;" parent="1" edge="1">
          <mxGeometry width="80" relative="1" as="geometry">
            <mxPoint x="259" y="610" as="sourcePoint" />
            <mxPoint x="559" y="610" as="targetPoint" />
            <Array as="points">
              <mxPoint x="439.5" y="610" />
            </Array>
          </mxGeometry>
        </mxCell>
      </root>
    </mxGraphModel>
  </diagram>
  <diagram id="fORFxsj74uerRfGU3ApN" name="DomainModel">
    <mxGraphModel dx="1967" dy="1129" grid="1" gridSize="10" guides="1" tooltips="1" connect="1" arrows="1" fold="1" page="1" pageScale="1" pageWidth="827" pageHeight="1169" math="0" shadow="0">
      <root>
        <mxCell id="0" />
        <mxCell id="1" parent="0" />
        <mxCell id="1k1Q4KIEgpbi39Mvo_Qd-4" value="&lt;p style=&quot;margin:0px;margin-top:4px;text-align:center;&quot;&gt;&lt;b&gt;Player&lt;/b&gt;&lt;/p&gt;&lt;hr size=&quot;1&quot;&gt;&lt;div style=&quot;height:2px;&quot;&gt;&lt;br&gt;&lt;/div&gt;&lt;div style=&quot;height:2px;&quot;&gt;&lt;br&gt;&lt;/div&gt;&lt;div style=&quot;height:2px;&quot;&gt;&lt;br&gt;&lt;/div&gt;&lt;div style=&quot;height:2px;&quot;&gt;&amp;nbsp; &amp;nbsp;philipsCard&lt;/div&gt;&lt;div style=&quot;height:2px;&quot;&gt;&lt;br&gt;&lt;/div&gt;&lt;div style=&quot;height:2px;&quot;&gt;&lt;br&gt;&lt;/div&gt;&lt;div style=&quot;height:2px;&quot;&gt;&lt;br&gt;&lt;/div&gt;&lt;div style=&quot;height:2px;&quot;&gt;&lt;br&gt;&lt;/div&gt;&lt;div style=&quot;height:2px;&quot;&gt;&lt;br&gt;&lt;/div&gt;&lt;div style=&quot;height:2px;&quot;&gt;&lt;br&gt;&lt;/div&gt;&lt;div style=&quot;height:2px;&quot;&gt;&lt;br&gt;&lt;/div&gt;&lt;div style=&quot;height:2px;&quot;&gt;&amp;nbsp; &amp;nbsp;&lt;/div&gt;&lt;div style=&quot;height:2px;&quot;&gt;&amp;nbsp; &amp;nbsp;hammarCard&lt;/div&gt;&lt;div style=&quot;height:2px;&quot;&gt;&lt;br&gt;&lt;/div&gt;&lt;div style=&quot;height:2px;&quot;&gt;&lt;br&gt;&lt;/div&gt;&lt;div style=&quot;height:2px;&quot;&gt;&lt;br&gt;&lt;/div&gt;&lt;div style=&quot;height:2px;&quot;&gt;&lt;br&gt;&lt;/div&gt;&lt;div style=&quot;height:2px;&quot;&gt;&lt;br&gt;&lt;/div&gt;&lt;div style=&quot;height:2px;&quot;&gt;&lt;br&gt;&lt;/div&gt;&lt;div style=&quot;height:2px;&quot;&gt;&lt;br&gt;&lt;/div&gt;&lt;div style=&quot;height:2px;&quot;&gt;&amp;nbsp; &amp;nbsp;sawCard&lt;/div&gt;&lt;div style=&quot;height:2px;&quot;&gt;&lt;br&gt;&lt;/div&gt;&lt;div style=&quot;height:2px;&quot;&gt;&lt;br&gt;&lt;/div&gt;&lt;div style=&quot;height:2px;&quot;&gt;&lt;br&gt;&lt;/div&gt;&lt;div style=&quot;height:2px;&quot;&gt;&lt;br&gt;&lt;/div&gt;&lt;div style=&quot;height:2px;&quot;&gt;&lt;br&gt;&lt;/div&gt;&lt;div style=&quot;height:2px;&quot;&gt;&lt;br&gt;&lt;/div&gt;&lt;div style=&quot;height:2px;&quot;&gt;&lt;br&gt;&lt;/div&gt;&lt;div style=&quot;height:2px;&quot;&gt;&amp;nbsp;&amp;nbsp;&lt;/div&gt;&lt;div style=&quot;height:2px;&quot;&gt;&amp;nbsp; &amp;nbsp;bridgeCard&lt;/div&gt;&lt;div style=&quot;height:2px;&quot;&gt;&lt;br&gt;&lt;/div&gt;&lt;div style=&quot;height:2px;&quot;&gt;&lt;br&gt;&lt;/div&gt;&lt;div style=&quot;height:2px;&quot;&gt;&lt;br&gt;&lt;/div&gt;&lt;div style=&quot;height:2px;&quot;&gt;&lt;br&gt;&lt;/div&gt;&lt;div style=&quot;height:2px;&quot;&gt;&lt;br&gt;&lt;/div&gt;&lt;div style=&quot;height:2px;&quot;&gt;&lt;br&gt;&lt;/div&gt;&lt;div style=&quot;height:2px;&quot;&gt;&lt;br&gt;&lt;/div&gt;&lt;div style=&quot;height:2px;&quot;&gt;&lt;br&gt;&lt;/div&gt;&lt;div style=&quot;height:2px;&quot;&gt;&amp;nbsp; &amp;nbsp;id&lt;/div&gt;&lt;div style=&quot;height:2px;&quot;&gt;&lt;br&gt;&lt;/div&gt;&lt;div style=&quot;height:2px;&quot;&gt;&lt;br&gt;&lt;/div&gt;&lt;div style=&quot;height:2px;&quot;&gt;&lt;br&gt;&lt;/div&gt;&lt;div style=&quot;height:2px;&quot;&gt;&lt;br&gt;&lt;/div&gt;&lt;div style=&quot;height:2px;&quot;&gt;&lt;br&gt;&lt;/div&gt;&lt;div style=&quot;height:2px;&quot;&gt;&lt;br&gt;&lt;/div&gt;&lt;div style=&quot;height:2px;&quot;&gt;&amp;nbsp; &amp;nbsp;&lt;/div&gt;&lt;div style=&quot;height:2px;&quot;&gt;&amp;nbsp; &amp;nbsp;isEnded&lt;/div&gt;" style="verticalAlign=top;align=left;overflow=fill;fontSize=12;fontFamily=Helvetica;html=1;strokeWidth=1;" parent="1" vertex="1">
          <mxGeometry x="160" y="330" width="140" height="150" as="geometry" />
        </mxCell>
        <mxCell id="J39_n8QLBao_KChUyZrx-2" value="&lt;p style=&quot;margin:0px;margin-top:4px;text-align:center;&quot;&gt;&lt;b&gt;GameMaster&lt;/b&gt;&lt;/p&gt;&lt;hr size=&quot;1&quot;&gt;&lt;div style=&quot;height:2px;&quot;&gt;&amp;nbsp; &amp;nbsp;endedPlayerCount&lt;/div&gt;&lt;div style=&quot;height:2px;&quot;&gt;&lt;br&gt;&lt;/div&gt;&lt;div style=&quot;height:2px;&quot;&gt;&lt;br&gt;&lt;/div&gt;&lt;div style=&quot;height:2px;&quot;&gt;&lt;br&gt;&lt;/div&gt;&lt;div style=&quot;height:2px;&quot;&gt;&lt;br&gt;&lt;/div&gt;&lt;div style=&quot;height:2px;&quot;&gt;&lt;br&gt;&lt;/div&gt;&lt;div style=&quot;height:2px;&quot;&gt;&lt;br&gt;&lt;/div&gt;&lt;div style=&quot;height:2px;&quot;&gt;&lt;br&gt;&lt;/div&gt;&lt;div style=&quot;height:2px;&quot;&gt;&lt;br&gt;&lt;/div&gt;&lt;div style=&quot;height:2px;&quot;&gt;&amp;nbsp; &amp;nbsp;playerNum&lt;/div&gt;" style="verticalAlign=top;align=left;overflow=fill;fontSize=12;fontFamily=Helvetica;html=1;strokeWidth=1;" parent="1" vertex="1">
          <mxGeometry x="406" y="360" width="140" height="80" as="geometry" />
        </mxCell>
        <mxCell id="J39_n8QLBao_KChUyZrx-3" value="&lt;p style=&quot;margin:0px;margin-top:4px;text-align:center;&quot;&gt;&lt;b&gt;Map&lt;/b&gt;&lt;/p&gt;&lt;hr size=&quot;1&quot;&gt;&lt;div style=&quot;height:2px;&quot;&gt;&amp;nbsp;&lt;br&gt;&lt;/div&gt;" style="verticalAlign=top;align=left;overflow=fill;fontSize=12;fontFamily=Helvetica;html=1;strokeWidth=1;" parent="1" vertex="1">
          <mxGeometry x="406" y="610" width="140" height="55" as="geometry" />
        </mxCell>
        <mxCell id="J39_n8QLBao_KChUyZrx-4" value="&lt;p style=&quot;margin:0px;margin-top:4px;text-align:center;&quot;&gt;&lt;b&gt;Dice&lt;/b&gt;&lt;/p&gt;&lt;hr size=&quot;1&quot;&gt;&lt;div style=&quot;height:2px;&quot;&gt;&amp;nbsp;&lt;/div&gt;" style="verticalAlign=top;align=left;overflow=fill;fontSize=12;fontFamily=Helvetica;html=1;strokeWidth=1;" parent="1" vertex="1">
          <mxGeometry x="580" y="610" width="140" height="55" as="geometry" />
        </mxCell>
        <mxCell id="J39_n8QLBao_KChUyZrx-5" value="&lt;p style=&quot;margin:0px;margin-top:4px;text-align:center;&quot;&gt;&lt;b&gt;Cell&lt;/b&gt;&lt;/p&gt;&lt;hr size=&quot;1&quot;&gt;&lt;div style=&quot;height:2px;&quot;&gt;&amp;nbsp; &amp;nbsp;cellType&lt;/div&gt;&lt;div style=&quot;height:2px;&quot;&gt;&lt;br&gt;&lt;/div&gt;&lt;div style=&quot;height:2px;&quot;&gt;&lt;br&gt;&lt;/div&gt;&lt;div style=&quot;height:2px;&quot;&gt;&lt;br&gt;&lt;/div&gt;&lt;div style=&quot;height:2px;&quot;&gt;&lt;br&gt;&lt;/div&gt;&lt;div style=&quot;height:2px;&quot;&gt;&lt;br&gt;&lt;/div&gt;&lt;div style=&quot;height:2px;&quot;&gt;&lt;br&gt;&lt;/div&gt;&lt;div style=&quot;height:2px;&quot;&gt;&lt;br&gt;&lt;/div&gt;&lt;div style=&quot;height:2px;&quot;&gt;&lt;br&gt;&lt;/div&gt;&lt;div style=&quot;height:2px;&quot;&gt;&amp;nbsp; &amp;nbsp;cellNum&lt;/div&gt;&lt;div style=&quot;height:2px;&quot;&gt;&lt;br&gt;&lt;/div&gt;&lt;div style=&quot;height:2px;&quot;&gt;&lt;br&gt;&lt;/div&gt;&lt;div style=&quot;height:2px;&quot;&gt;&lt;br&gt;&lt;/div&gt;&lt;div style=&quot;height:2px;&quot;&gt;&lt;br&gt;&lt;/div&gt;&lt;div style=&quot;height:2px;&quot;&gt;&lt;br&gt;&lt;/div&gt;&lt;div style=&quot;height:2px;&quot;&gt;&lt;br&gt;&lt;/div&gt;&lt;div style=&quot;height:2px;&quot;&gt;&lt;br&gt;&lt;/div&gt;&lt;div style=&quot;height:2px;&quot;&gt;&lt;br&gt;&lt;/div&gt;&lt;div style=&quot;height:2px;&quot;&gt;&lt;br&gt;&lt;/div&gt;&lt;div style=&quot;height:2px;&quot;&gt;&amp;nbsp; &amp;nbsp;position&lt;/div&gt;" style="verticalAlign=top;align=left;overflow=fill;fontSize=12;fontFamily=Helvetica;html=1;strokeWidth=1;" parent="1" vertex="1">
          <mxGeometry x="160" y="630" width="140" height="95" as="geometry" />
        </mxCell>
        <mxCell id="J39_n8QLBao_KChUyZrx-6" style="edgeStyle=orthogonalEdgeStyle;curved=1;jumpStyle=none;orthogonalLoop=1;jettySize=auto;html=1;exitX=0.5;exitY=1;exitDx=0;exitDy=0;labelBorderColor=none;endArrow=none;endFill=0;" parent="1" source="1k1Q4KIEgpbi39Mvo_Qd-4" target="1k1Q4KIEgpbi39Mvo_Qd-4" edge="1">
          <mxGeometry relative="1" as="geometry" />
        </mxCell>
        <mxCell id="GAibT3jDbeWEHVXjJT_5-1" value="" style="endArrow=none;html=1;edgeStyle=orthogonalEdgeStyle;labelBorderColor=none;curved=1;jumpStyle=none;exitX=0.5;exitY=0;exitDx=0;exitDy=0;entryX=0.5;entryY=1;entryDx=0;entryDy=0;" parent="1" source="J39_n8QLBao_KChUyZrx-5" target="1k1Q4KIEgpbi39Mvo_Qd-4" edge="1">
          <mxGeometry relative="1" as="geometry">
            <mxPoint x="316" y="560" as="sourcePoint" />
            <mxPoint x="476" y="560" as="targetPoint" />
          </mxGeometry>
        </mxCell>
        <mxCell id="GAibT3jDbeWEHVXjJT_5-2" value="1" style="edgeLabel;resizable=0;html=1;align=left;verticalAlign=bottom;strokeWidth=1;" parent="GAibT3jDbeWEHVXjJT_5-1" connectable="0" vertex="1">
          <mxGeometry x="-1" relative="1" as="geometry" />
        </mxCell>
        <mxCell id="GAibT3jDbeWEHVXjJT_5-3" value="1..4" style="edgeLabel;resizable=0;html=1;align=left;verticalAlign=top;strokeWidth=1;" parent="GAibT3jDbeWEHVXjJT_5-1" connectable="0" vertex="1">
          <mxGeometry x="1" relative="1" as="geometry" />
        </mxCell>
        <mxCell id="GAibT3jDbeWEHVXjJT_5-4" value="" style="endArrow=none;html=1;labelBorderColor=none;jumpStyle=none;entryX=0.5;entryY=1;entryDx=0;entryDy=0;edgeStyle=orthogonalEdgeStyle;" parent="1" target="J39_n8QLBao_KChUyZrx-3" edge="1">
          <mxGeometry relative="1" as="geometry">
            <mxPoint x="300" y="700" as="sourcePoint" />
            <mxPoint x="436" y="700" as="targetPoint" />
          </mxGeometry>
        </mxCell>
        <mxCell id="GAibT3jDbeWEHVXjJT_5-5" value="1..*" style="edgeLabel;resizable=0;html=1;align=left;verticalAlign=bottom;strokeWidth=1;" parent="GAibT3jDbeWEHVXjJT_5-4" connectable="0" vertex="1">
          <mxGeometry x="-1" relative="1" as="geometry" />
        </mxCell>
        <mxCell id="GAibT3jDbeWEHVXjJT_5-6" value="1" style="edgeLabel;resizable=0;html=1;align=left;verticalAlign=top;strokeWidth=1;" parent="GAibT3jDbeWEHVXjJT_5-4" connectable="0" vertex="1">
          <mxGeometry x="1" relative="1" as="geometry" />
        </mxCell>
        <mxCell id="GAibT3jDbeWEHVXjJT_5-8" value="" style="endArrow=none;html=1;edgeStyle=orthogonalEdgeStyle;labelBorderColor=none;jumpStyle=none;entryX=0.5;entryY=0;entryDx=0;entryDy=0;" parent="1" source="J39_n8QLBao_KChUyZrx-2" target="J39_n8QLBao_KChUyZrx-3" edge="1">
          <mxGeometry relative="1" as="geometry">
            <mxPoint x="316" y="560" as="sourcePoint" />
            <mxPoint x="476" y="560" as="targetPoint" />
          </mxGeometry>
        </mxCell>
        <mxCell id="GAibT3jDbeWEHVXjJT_5-9" value="1" style="edgeLabel;resizable=0;html=1;align=left;verticalAlign=top;strokeWidth=1;" parent="GAibT3jDbeWEHVXjJT_5-8" connectable="0" vertex="1">
          <mxGeometry x="-1" relative="1" as="geometry" />
        </mxCell>
        <mxCell id="GAibT3jDbeWEHVXjJT_5-10" value="1" style="edgeLabel;resizable=0;html=1;align=left;verticalAlign=bottom;strokeWidth=1;" parent="GAibT3jDbeWEHVXjJT_5-8" connectable="0" vertex="1">
          <mxGeometry x="1" relative="1" as="geometry" />
        </mxCell>
        <mxCell id="GAibT3jDbeWEHVXjJT_5-11" value="" style="endArrow=none;html=1;edgeStyle=orthogonalEdgeStyle;labelBorderColor=none;jumpStyle=none;entryX=0.5;entryY=0;entryDx=0;entryDy=0;exitX=1;exitY=0.5;exitDx=0;exitDy=0;" parent="1" source="J39_n8QLBao_KChUyZrx-2" target="J39_n8QLBao_KChUyZrx-4" edge="1">
          <mxGeometry relative="1" as="geometry">
            <mxPoint x="316" y="560" as="sourcePoint" />
            <mxPoint x="476" y="560" as="targetPoint" />
          </mxGeometry>
        </mxCell>
        <mxCell id="GAibT3jDbeWEHVXjJT_5-12" value="1" style="edgeLabel;resizable=0;html=1;align=left;verticalAlign=bottom;strokeWidth=1;" parent="GAibT3jDbeWEHVXjJT_5-11" connectable="0" vertex="1">
          <mxGeometry x="-1" relative="1" as="geometry" />
        </mxCell>
        <mxCell id="GAibT3jDbeWEHVXjJT_5-13" value="1" style="edgeLabel;resizable=0;html=1;align=left;verticalAlign=bottom;strokeWidth=1;" parent="GAibT3jDbeWEHVXjJT_5-11" connectable="0" vertex="1">
          <mxGeometry x="1" relative="1" as="geometry" />
        </mxCell>
        <mxCell id="uxrxopRGYWBa31n_M6Kb-4" value="" style="endArrow=none;html=1;edgeStyle=orthogonalEdgeStyle;labelBorderColor=none;jumpStyle=none;exitX=1;exitY=0.557;exitDx=0;exitDy=0;exitPerimeter=0;" parent="1" source="1k1Q4KIEgpbi39Mvo_Qd-4" edge="1">
          <mxGeometry relative="1" as="geometry">
            <mxPoint x="316" y="560" as="sourcePoint" />
            <mxPoint x="406" y="414" as="targetPoint" />
          </mxGeometry>
        </mxCell>
        <mxCell id="uxrxopRGYWBa31n_M6Kb-5" value="2..4" style="edgeLabel;resizable=0;html=1;align=left;verticalAlign=bottom;strokeWidth=1;" parent="uxrxopRGYWBa31n_M6Kb-4" connectable="0" vertex="1">
          <mxGeometry x="-1" relative="1" as="geometry" />
        </mxCell>
        <mxCell id="uxrxopRGYWBa31n_M6Kb-6" value="1" style="edgeLabel;resizable=0;html=1;align=right;verticalAlign=bottom;strokeWidth=1;" parent="uxrxopRGYWBa31n_M6Kb-4" connectable="0" vertex="1">
          <mxGeometry x="1" relative="1" as="geometry" />
        </mxCell>
        <mxCell id="uxrxopRGYWBa31n_M6Kb-7" value="Played-on" style="text;align=center;fontStyle=0;verticalAlign=middle;spacingLeft=3;spacingRight=3;strokeColor=none;rotatable=0;points=[[0,0.5],[1,0.5]];portConstraint=eastwest;" parent="1" vertex="1">
          <mxGeometry x="406" y="520" width="80" height="26" as="geometry" />
        </mxCell>
        <mxCell id="uxrxopRGYWBa31n_M6Kb-8" value="Played-with" style="text;align=center;fontStyle=0;verticalAlign=middle;spacingLeft=3;spacingRight=3;strokeColor=none;rotatable=0;points=[[0,0.5],[1,0.5]];portConstraint=eastwest;" parent="1" vertex="1">
          <mxGeometry x="645" y="520" width="80" height="26" as="geometry" />
        </mxCell>
        <mxCell id="uxrxopRGYWBa31n_M6Kb-9" value="Contains" style="text;align=center;fontStyle=0;verticalAlign=middle;spacingLeft=3;spacingRight=3;strokeColor=none;rotatable=0;points=[[0,0.5],[1,0.5]];portConstraint=eastwest;" parent="1" vertex="1">
          <mxGeometry x="360" y="699" width="80" height="26" as="geometry" />
        </mxCell>
        <mxCell id="uxrxopRGYWBa31n_M6Kb-10" value="Manages" style="text;align=center;fontStyle=0;verticalAlign=middle;spacingLeft=3;spacingRight=3;strokeColor=none;rotatable=0;points=[[0,0.5],[1,0.5]];portConstraint=eastwest;" parent="1" vertex="1">
          <mxGeometry x="320" y="412" width="80" height="26" as="geometry" />
        </mxCell>
        <mxCell id="uxrxopRGYWBa31n_M6Kb-11" value="Is-on" style="text;align=center;fontStyle=0;verticalAlign=middle;spacingLeft=3;spacingRight=3;strokeColor=none;rotatable=0;points=[[0,0.5],[1,0.5]];portConstraint=eastwest;" parent="1" vertex="1">
          <mxGeometry x="160" y="541" width="80" height="26" as="geometry" />
        </mxCell>
      </root>
    </mxGraphModel>
  </diagram>
  <diagram id="6LTfkzwikY2euq23bI2U" name="SequenceDiagram">
    <mxGraphModel dx="1967" dy="1129" grid="1" gridSize="10" guides="1" tooltips="1" connect="1" arrows="1" fold="1" page="1" pageScale="1" pageWidth="827" pageHeight="1169" math="0" shadow="0">
      <root>
        <mxCell id="0" />
        <mxCell id="1" parent="0" />
        <mxCell id="OnY4T2A8E0a1amK9CYvn-1" value="&lt;font style=&quot;font-size: 12px;&quot;&gt;&lt;b&gt;sd&lt;/b&gt; BoardGame&lt;/font&gt;" style="shape=umlFrame;whiteSpace=wrap;html=1;strokeWidth=1;width=170;height=30;fontSize=5;" parent="1" vertex="1">
          <mxGeometry x="130" y="60" width="980" height="3240" as="geometry" />
        </mxCell>
        <mxCell id="h33DekUE-be9hYsTi6TP-1" value=":GameMaster" style="shape=umlLifeline;perimeter=lifelinePerimeter;whiteSpace=wrap;html=1;container=1;collapsible=0;recursiveResize=0;outlineConnect=0;fontSize=12;strokeWidth=1;" parent="1" vertex="1">
          <mxGeometry x="223" y="120" width="110" height="3180" as="geometry" />
        </mxCell>
        <mxCell id="KTcS7PsUGW4kPa3MCJEL-4" value="[else]" style="text;align=center;fontStyle=0;verticalAlign=middle;spacingLeft=3;spacingRight=3;strokeColor=none;rotatable=0;points=[[0,0.5],[1,0.5]];portConstraint=eastwest;" parent="h33DekUE-be9hYsTi6TP-1" vertex="1">
          <mxGeometry x="40" y="2090" width="80" height="26" as="geometry" />
        </mxCell>
        <mxCell id="wlEMJd632SBX9OOP7pqr-1" value="" style="html=1;points=[];perimeter=orthogonalPerimeter;fontSize=12;strokeWidth=1;" parent="h33DekUE-be9hYsTi6TP-1" vertex="1">
          <mxGeometry x="50" y="2420" width="10" height="140" as="geometry" />
        </mxCell>
        <mxCell id="wlEMJd632SBX9OOP7pqr-2" value="" style="html=1;points=[];perimeter=orthogonalPerimeter;fontSize=12;strokeWidth=1;" parent="h33DekUE-be9hYsTi6TP-1" vertex="1">
          <mxGeometry x="54" y="2450" width="10" height="40" as="geometry" />
        </mxCell>
        <mxCell id="wlEMJd632SBX9OOP7pqr-3" value="removePlayer()" style="edgeStyle=orthogonalEdgeStyle;html=1;align=left;spacingLeft=2;endArrow=block;rounded=0;entryX=1;entryY=0;labelBorderColor=none;fontSize=12;jumpStyle=none;" parent="h33DekUE-be9hYsTi6TP-1" target="wlEMJd632SBX9OOP7pqr-2" edge="1">
          <mxGeometry relative="1" as="geometry">
            <mxPoint x="59" y="2430" as="sourcePoint" />
            <Array as="points">
              <mxPoint x="89" y="2430" />
            </Array>
          </mxGeometry>
        </mxCell>
        <mxCell id="wlEMJd632SBX9OOP7pqr-4" value="" style="html=1;points=[];perimeter=orthogonalPerimeter;fontSize=12;strokeWidth=1;" parent="h33DekUE-be9hYsTi6TP-1" vertex="1">
          <mxGeometry x="54" y="2510" width="10" height="40" as="geometry" />
        </mxCell>
        <mxCell id="wlEMJd632SBX9OOP7pqr-5" value="printPlayerInfo()" style="edgeStyle=orthogonalEdgeStyle;html=1;align=left;spacingLeft=2;endArrow=block;rounded=0;entryX=1;entryY=0;labelBorderColor=none;fontSize=12;jumpStyle=none;" parent="h33DekUE-be9hYsTi6TP-1" target="wlEMJd632SBX9OOP7pqr-4" edge="1">
          <mxGeometry relative="1" as="geometry">
            <mxPoint x="59" y="2490" as="sourcePoint" />
            <Array as="points">
              <mxPoint x="89" y="2490" />
            </Array>
          </mxGeometry>
        </mxCell>
        <mxCell id="wlEMJd632SBX9OOP7pqr-6" value="" style="html=1;points=[];perimeter=orthogonalPerimeter;fontSize=12;strokeWidth=1;" parent="h33DekUE-be9hYsTi6TP-1" vertex="1">
          <mxGeometry x="50" y="2630" width="10" height="80" as="geometry" />
        </mxCell>
        <mxCell id="wlEMJd632SBX9OOP7pqr-7" value="" style="html=1;points=[];perimeter=orthogonalPerimeter;fontSize=12;strokeWidth=1;" parent="h33DekUE-be9hYsTi6TP-1" vertex="1">
          <mxGeometry x="54" y="2660" width="10" height="40" as="geometry" />
        </mxCell>
        <mxCell id="wlEMJd632SBX9OOP7pqr-8" value="printPlayerInfo()" style="edgeStyle=orthogonalEdgeStyle;html=1;align=left;spacingLeft=2;endArrow=block;rounded=0;entryX=1;entryY=0;labelBorderColor=none;fontSize=12;jumpStyle=none;" parent="h33DekUE-be9hYsTi6TP-1" target="wlEMJd632SBX9OOP7pqr-7" edge="1">
          <mxGeometry relative="1" as="geometry">
            <mxPoint x="59" y="2640" as="sourcePoint" />
            <Array as="points">
              <mxPoint x="89" y="2640" />
            </Array>
          </mxGeometry>
        </mxCell>
        <mxCell id="h33DekUE-be9hYsTi6TP-2" value=":Player" style="shape=umlLifeline;perimeter=lifelinePerimeter;whiteSpace=wrap;html=1;container=1;collapsible=0;recursiveResize=0;outlineConnect=0;fontSize=12;strokeWidth=1;" parent="1" vertex="1">
          <mxGeometry x="400" y="120" width="100" height="3180" as="geometry" />
        </mxCell>
        <mxCell id="RAq6pZsmLzL8a0M1FKef-1" value="" style="html=1;points=[];perimeter=orthogonalPerimeter;fontSize=12;strokeWidth=1;" parent="h33DekUE-be9hYsTi6TP-2" vertex="1">
          <mxGeometry x="45" y="90" width="10" height="60" as="geometry" />
        </mxCell>
        <mxCell id="l2cpXGYDL4alfi5mq6In-2" value="" style="html=1;points=[];perimeter=orthogonalPerimeter;fontSize=12;strokeWidth=1;" parent="h33DekUE-be9hYsTi6TP-2" vertex="1">
          <mxGeometry x="45" y="1000" width="10" height="60" as="geometry" />
        </mxCell>
        <mxCell id="Ns3nmdR3iaZhxcRfa-Np-1" value="" style="html=1;points=[];perimeter=orthogonalPerimeter;fontSize=12;strokeWidth=1;" parent="h33DekUE-be9hYsTi6TP-2" vertex="1">
          <mxGeometry x="45" y="1139" width="10" height="60" as="geometry" />
        </mxCell>
        <mxCell id="15U3rye4Yl3UAOw7nZXL-1" value="" style="html=1;points=[];perimeter=orthogonalPerimeter;fontSize=12;strokeWidth=1;" parent="h33DekUE-be9hYsTi6TP-2" vertex="1">
          <mxGeometry x="45" y="1420" width="10" height="80" as="geometry" />
        </mxCell>
        <mxCell id="15U3rye4Yl3UAOw7nZXL-4" value="" style="html=1;points=[];perimeter=orthogonalPerimeter;fontSize=12;strokeWidth=1;" parent="h33DekUE-be9hYsTi6TP-2" vertex="1">
          <mxGeometry x="50" y="1450" width="10" height="40" as="geometry" />
        </mxCell>
        <mxCell id="15U3rye4Yl3UAOw7nZXL-5" value="removeBridgeCard" style="edgeStyle=orthogonalEdgeStyle;html=1;align=left;spacingLeft=2;endArrow=block;rounded=0;entryX=1;entryY=0;labelBorderColor=none;fontSize=12;jumpStyle=none;" parent="h33DekUE-be9hYsTi6TP-2" target="15U3rye4Yl3UAOw7nZXL-4" edge="1">
          <mxGeometry relative="1" as="geometry">
            <mxPoint x="55" y="1430" as="sourcePoint" />
            <Array as="points">
              <mxPoint x="85" y="1430" />
            </Array>
          </mxGeometry>
        </mxCell>
        <mxCell id="vnX1RdcI4P5BOMBEg8j9-7" value="" style="html=1;points=[];perimeter=orthogonalPerimeter;fontSize=12;strokeWidth=1;" parent="h33DekUE-be9hYsTi6TP-2" vertex="1">
          <mxGeometry x="45" y="1780" width="10" height="290" as="geometry" />
        </mxCell>
        <mxCell id="xUQN6jmv4mlj2ApzTpom-22" value="moveResult" style="html=1;verticalAlign=bottom;endArrow=open;dashed=1;endSize=8;labelBorderColor=none;fontSize=12;jumpStyle=none;" parent="h33DekUE-be9hYsTi6TP-2" edge="1">
          <mxGeometry relative="1" as="geometry">
            <mxPoint x="55" y="1912" as="targetPoint" />
            <mxPoint x="205" y="1912" as="sourcePoint" />
          </mxGeometry>
        </mxCell>
        <mxCell id="xUQN6jmv4mlj2ApzTpom-23" value="" style="html=1;points=[];perimeter=orthogonalPerimeter;fontSize=12;strokeWidth=1;" parent="h33DekUE-be9hYsTi6TP-2" vertex="1">
          <mxGeometry x="50" y="1980" width="10" height="40" as="geometry" />
        </mxCell>
        <mxCell id="xUQN6jmv4mlj2ApzTpom-24" value="changeLocation/CardInfo()" style="edgeStyle=orthogonalEdgeStyle;html=1;align=left;spacingLeft=2;endArrow=block;rounded=0;entryX=1;entryY=0;labelBorderColor=none;fontSize=12;jumpStyle=none;" parent="h33DekUE-be9hYsTi6TP-2" target="xUQN6jmv4mlj2ApzTpom-23" edge="1">
          <mxGeometry relative="1" as="geometry">
            <mxPoint x="55" y="1960" as="sourcePoint" />
            <Array as="points">
              <mxPoint x="85" y="1960" />
            </Array>
          </mxGeometry>
        </mxCell>
        <mxCell id="KTcS7PsUGW4kPa3MCJEL-1" value="" style="html=1;points=[];perimeter=orthogonalPerimeter;fontSize=12;strokeWidth=1;" parent="h33DekUE-be9hYsTi6TP-2" vertex="1">
          <mxGeometry x="45" y="2140" width="10" height="80" as="geometry" />
        </mxCell>
        <mxCell id="JNeoq6ogvczf7wzM6Hyj-1" value="" style="html=1;points=[];perimeter=orthogonalPerimeter;fontSize=12;strokeWidth=1;" parent="h33DekUE-be9hYsTi6TP-2" vertex="1">
          <mxGeometry x="45" y="2290" width="10" height="60" as="geometry" />
        </mxCell>
        <mxCell id="wOTIDTN6cJ0Gly3XnL4y-6" value="" style="html=1;points=[];perimeter=orthogonalPerimeter;fontSize=12;strokeWidth=1;" parent="h33DekUE-be9hYsTi6TP-2" vertex="1">
          <mxGeometry x="-127" y="2940" width="10" height="200" as="geometry" />
        </mxCell>
        <mxCell id="wOTIDTN6cJ0Gly3XnL4y-7" value="" style="html=1;points=[];perimeter=orthogonalPerimeter;fontSize=12;strokeWidth=1;" parent="h33DekUE-be9hYsTi6TP-2" vertex="1">
          <mxGeometry x="-123" y="3000" width="10" height="40" as="geometry" />
        </mxCell>
        <mxCell id="wOTIDTN6cJ0Gly3XnL4y-8" value="findWinner()" style="edgeStyle=orthogonalEdgeStyle;html=1;align=left;spacingLeft=2;endArrow=block;rounded=0;entryX=1;entryY=0;labelBorderColor=none;fontSize=12;jumpStyle=none;" parent="h33DekUE-be9hYsTi6TP-2" target="wOTIDTN6cJ0Gly3XnL4y-7" edge="1">
          <mxGeometry relative="1" as="geometry">
            <mxPoint x="-118" y="2980" as="sourcePoint" />
            <Array as="points">
              <mxPoint x="-88" y="2980" />
            </Array>
          </mxGeometry>
        </mxCell>
        <mxCell id="3yvJ8_nOOiNtWcEc-E3c-1" value="" style="html=1;points=[];perimeter=orthogonalPerimeter;fontSize=12;strokeWidth=1;" parent="h33DekUE-be9hYsTi6TP-2" vertex="1">
          <mxGeometry x="-123" y="3075" width="10" height="40" as="geometry" />
        </mxCell>
        <mxCell id="3yvJ8_nOOiNtWcEc-E3c-2" value="printWinnerInfo()" style="edgeStyle=orthogonalEdgeStyle;html=1;align=left;spacingLeft=2;endArrow=block;rounded=0;entryX=1;entryY=0;labelBorderColor=none;fontSize=12;jumpStyle=none;" parent="h33DekUE-be9hYsTi6TP-2" edge="1">
          <mxGeometry relative="1" as="geometry">
            <mxPoint x="-121" y="3056" as="sourcePoint" />
            <Array as="points">
              <mxPoint x="-91" y="3056" />
            </Array>
            <mxPoint x="-111" y="3076" as="targetPoint" />
          </mxGeometry>
        </mxCell>
        <mxCell id="wOTIDTN6cJ0Gly3XnL4y-1" value="" style="html=1;points=[];perimeter=orthogonalPerimeter;fontSize=12;strokeWidth=1;" parent="h33DekUE-be9hYsTi6TP-2" vertex="1">
          <mxGeometry x="45" y="2840" width="10" height="110" as="geometry" />
        </mxCell>
        <mxCell id="wOTIDTN6cJ0Gly3XnL4y-4" value="" style="html=1;points=[];perimeter=orthogonalPerimeter;fontSize=12;strokeWidth=1;" parent="h33DekUE-be9hYsTi6TP-2" vertex="1">
          <mxGeometry x="50" y="2870" width="10" height="40" as="geometry" />
        </mxCell>
        <mxCell id="wOTIDTN6cJ0Gly3XnL4y-5" value="calculatePoint()" style="edgeStyle=orthogonalEdgeStyle;html=1;align=left;spacingLeft=2;endArrow=block;rounded=0;entryX=1;entryY=0;labelBorderColor=none;fontSize=12;jumpStyle=none;" parent="h33DekUE-be9hYsTi6TP-2" target="wOTIDTN6cJ0Gly3XnL4y-4" edge="1">
          <mxGeometry relative="1" as="geometry">
            <mxPoint x="50" y="2850" as="sourcePoint" />
            <Array as="points">
              <mxPoint x="80" y="2850" />
            </Array>
          </mxGeometry>
        </mxCell>
        <mxCell id="wOTIDTN6cJ0Gly3XnL4y-2" value="request totalPoint" style="html=1;verticalAlign=bottom;endArrow=block;entryX=1;entryY=0;labelBorderColor=none;fontSize=12;jumpStyle=none;" parent="h33DekUE-be9hYsTi6TP-2" edge="1">
          <mxGeometry relative="1" as="geometry">
            <mxPoint x="-121.5" y="2840" as="sourcePoint" />
            <mxPoint x="49" y="2840" as="targetPoint" />
          </mxGeometry>
        </mxCell>
        <mxCell id="wOTIDTN6cJ0Gly3XnL4y-3" value="totalPoint" style="html=1;verticalAlign=bottom;endArrow=open;dashed=1;endSize=8;exitX=1;exitY=0.95;labelBorderColor=none;fontSize=12;jumpStyle=none;" parent="h33DekUE-be9hYsTi6TP-2" source="wOTIDTN6cJ0Gly3XnL4y-1" edge="1">
          <mxGeometry relative="1" as="geometry">
            <mxPoint x="-115.5" y="2944.5" as="targetPoint" />
          </mxGeometry>
        </mxCell>
        <mxCell id="h33DekUE-be9hYsTi6TP-3" value=":Map" style="shape=umlLifeline;perimeter=lifelinePerimeter;whiteSpace=wrap;html=1;container=1;collapsible=0;recursiveResize=0;outlineConnect=0;fontSize=12;strokeWidth=1;" parent="1" vertex="1">
          <mxGeometry x="565" y="120" width="100" height="3180" as="geometry" />
        </mxCell>
        <mxCell id="xUQN6jmv4mlj2ApzTpom-20" value="" style="html=1;points=[];perimeter=orthogonalPerimeter;fontSize=12;strokeWidth=1;" parent="h33DekUE-be9hYsTi6TP-3" vertex="1">
          <mxGeometry x="46" y="1855" width="10" height="60" as="geometry" />
        </mxCell>
        <mxCell id="h33DekUE-be9hYsTi6TP-4" value=":Cell" style="shape=umlLifeline;perimeter=lifelinePerimeter;whiteSpace=wrap;html=1;container=1;collapsible=0;recursiveResize=0;outlineConnect=0;fontSize=12;strokeWidth=1;" parent="1" vertex="1">
          <mxGeometry x="727" y="120" width="100" height="3180" as="geometry" />
        </mxCell>
        <mxCell id="vNQY04vLd8BujldURRaK-26" value="" style="html=1;points=[];perimeter=orthogonalPerimeter;fontSize=12;strokeWidth=1;" parent="h33DekUE-be9hYsTi6TP-4" vertex="1">
          <mxGeometry x="45" y="904" width="10" height="60" as="geometry" />
        </mxCell>
        <mxCell id="h33DekUE-be9hYsTi6TP-5" value=":Dice" style="shape=umlLifeline;perimeter=lifelinePerimeter;whiteSpace=wrap;html=1;container=1;collapsible=0;recursiveResize=0;outlineConnect=0;fontSize=12;strokeWidth=1;" parent="1" vertex="1">
          <mxGeometry x="900" y="120" width="100" height="3180" as="geometry" />
        </mxCell>
        <mxCell id="vNQY04vLd8BujldURRaK-23" value="" style="html=1;points=[];perimeter=orthogonalPerimeter;fontSize=12;strokeWidth=1;" parent="h33DekUE-be9hYsTi6TP-5" vertex="1">
          <mxGeometry x="45" y="810" width="10" height="60" as="geometry" />
        </mxCell>
        <mxCell id="vnX1RdcI4P5BOMBEg8j9-1" value="" style="html=1;points=[];perimeter=orthogonalPerimeter;fontSize=12;strokeWidth=1;" parent="h33DekUE-be9hYsTi6TP-5" vertex="1">
          <mxGeometry x="45" y="1290" width="10" height="60" as="geometry" />
        </mxCell>
        <mxCell id="xUQN6jmv4mlj2ApzTpom-12" value="" style="html=1;points=[];perimeter=orthogonalPerimeter;fontSize=12;strokeWidth=1;" parent="h33DekUE-be9hYsTi6TP-5" vertex="1">
          <mxGeometry x="45" y="1580" width="10" height="80" as="geometry" />
        </mxCell>
        <mxCell id="xUQN6jmv4mlj2ApzTpom-13" value="rollDice" style="html=1;verticalAlign=bottom;endArrow=block;entryX=0;entryY=0;labelBorderColor=none;fontSize=12;jumpStyle=none;" parent="h33DekUE-be9hYsTi6TP-5" target="xUQN6jmv4mlj2ApzTpom-12" edge="1">
          <mxGeometry x="0.4683" relative="1" as="geometry">
            <mxPoint x="-25" y="1580" as="sourcePoint" />
            <Array as="points">
              <mxPoint x="-620" y="1580" />
            </Array>
            <mxPoint as="offset" />
          </mxGeometry>
        </mxCell>
        <mxCell id="RAq6pZsmLzL8a0M1FKef-2" value="request changeMap decision" style="html=1;verticalAlign=bottom;endArrow=block;entryX=1;entryY=0;labelBorderColor=none;fontSize=12;jumpStyle=none;" parent="1" source="h33DekUE-be9hYsTi6TP-1" target="RAq6pZsmLzL8a0M1FKef-1" edge="1">
          <mxGeometry relative="1" as="geometry">
            <mxPoint x="580" y="510" as="sourcePoint" />
          </mxGeometry>
        </mxCell>
        <mxCell id="RAq6pZsmLzL8a0M1FKef-3" value="changeMap Value" style="html=1;verticalAlign=bottom;endArrow=open;dashed=1;endSize=8;exitX=1;exitY=0.95;labelBorderColor=none;fontSize=12;jumpStyle=none;" parent="1" source="RAq6pZsmLzL8a0M1FKef-1" target="h33DekUE-be9hYsTi6TP-1" edge="1">
          <mxGeometry relative="1" as="geometry">
            <mxPoint x="580" y="567" as="targetPoint" />
          </mxGeometry>
        </mxCell>
        <mxCell id="zxPQWduwn8FnjouI6-cf-1" value="alt" style="shape=umlFrame;whiteSpace=wrap;html=1;" parent="1" vertex="1">
          <mxGeometry x="200" y="285" width="830" height="610" as="geometry" />
        </mxCell>
        <mxCell id="ri8mhPKkC6Gtt5tEwX7I-1" value="[changeMapValue == &quot;Y&quot;]" style="text;align=center;fontStyle=0;verticalAlign=middle;spacingLeft=3;spacingRight=3;strokeColor=none;rotatable=0;points=[[0,0.5],[1,0.5]];portConstraint=eastwest;" parent="1" vertex="1">
          <mxGeometry x="320" y="290" width="80" height="26" as="geometry" />
        </mxCell>
        <mxCell id="ri8mhPKkC6Gtt5tEwX7I-3" value="" style="html=1;points=[];perimeter=orthogonalPerimeter;fontSize=12;strokeWidth=1;" parent="1" vertex="1">
          <mxGeometry x="445" y="352" width="10" height="60" as="geometry" />
        </mxCell>
        <mxCell id="ri8mhPKkC6Gtt5tEwX7I-4" value="request selectMap index" style="html=1;verticalAlign=bottom;endArrow=block;entryX=1;entryY=0;labelBorderColor=none;fontSize=12;jumpStyle=none;" parent="1" target="ri8mhPKkC6Gtt5tEwX7I-3" edge="1">
          <mxGeometry relative="1" as="geometry">
            <mxPoint x="279.5" y="352" as="sourcePoint" />
          </mxGeometry>
        </mxCell>
        <mxCell id="ri8mhPKkC6Gtt5tEwX7I-5" value="selectMap index" style="html=1;verticalAlign=bottom;endArrow=open;dashed=1;endSize=8;exitX=1;exitY=0.95;labelBorderColor=none;fontSize=12;jumpStyle=none;" parent="1" source="ri8mhPKkC6Gtt5tEwX7I-3" edge="1">
          <mxGeometry relative="1" as="geometry">
            <mxPoint x="279.5" y="409" as="targetPoint" />
          </mxGeometry>
        </mxCell>
        <mxCell id="mvVUBPSx_ql1-SSS3bie-1" value="" style="html=1;points=[];perimeter=orthogonalPerimeter;fontSize=12;strokeWidth=1;" parent="1" vertex="1">
          <mxGeometry x="610.5" y="460" width="10" height="160" as="geometry" />
        </mxCell>
        <mxCell id="mvVUBPSx_ql1-SSS3bie-2" value="&amp;lt;&amp;lt;create&amp;gt;&amp;gt;" style="html=1;verticalAlign=bottom;endArrow=block;labelBorderColor=none;fontSize=12;jumpStyle=none;" parent="1" source="h33DekUE-be9hYsTi6TP-1" edge="1">
          <mxGeometry relative="1" as="geometry">
            <mxPoint x="445" y="460" as="sourcePoint" />
            <mxPoint x="616" y="460" as="targetPoint" />
          </mxGeometry>
        </mxCell>
        <mxCell id="mvVUBPSx_ql1-SSS3bie-3" value="" style="html=1;verticalAlign=bottom;endArrow=open;dashed=1;endSize=8;labelBorderColor=none;fontSize=12;jumpStyle=none;" parent="1" target="h33DekUE-be9hYsTi6TP-1" edge="1">
          <mxGeometry relative="1" as="geometry">
            <mxPoint x="445" y="517" as="targetPoint" />
            <mxPoint x="610" y="610" as="sourcePoint" />
          </mxGeometry>
        </mxCell>
        <mxCell id="mvVUBPSx_ql1-SSS3bie-4" value="" style="html=1;points=[];perimeter=orthogonalPerimeter;fontSize=12;strokeWidth=1;" parent="1" vertex="1">
          <mxGeometry x="613.5" y="490" width="10" height="110" as="geometry" />
        </mxCell>
        <mxCell id="mvVUBPSx_ql1-SSS3bie-5" value="makeMap" style="edgeStyle=orthogonalEdgeStyle;html=1;align=left;spacingLeft=2;endArrow=block;rounded=0;entryX=1;entryY=0;labelBorderColor=none;fontSize=12;jumpStyle=none;" parent="1" target="mvVUBPSx_ql1-SSS3bie-4" edge="1">
          <mxGeometry relative="1" as="geometry">
            <mxPoint x="618.5" y="470" as="sourcePoint" />
            <Array as="points">
              <mxPoint x="648.5" y="470" />
            </Array>
          </mxGeometry>
        </mxCell>
        <mxCell id="mvVUBPSx_ql1-SSS3bie-6" value="" style="html=1;points=[];perimeter=orthogonalPerimeter;fontSize=12;strokeWidth=1;" parent="1" vertex="1">
          <mxGeometry x="770" y="510" width="10" height="80" as="geometry" />
        </mxCell>
        <mxCell id="mvVUBPSx_ql1-SSS3bie-7" value="&amp;lt;&amp;lt;create&amp;gt;&amp;gt;" style="html=1;verticalAlign=bottom;endArrow=block;entryX=0;entryY=0;labelBorderColor=none;fontSize=12;jumpStyle=none;" parent="1" source="mvVUBPSx_ql1-SSS3bie-4" target="mvVUBPSx_ql1-SSS3bie-6" edge="1">
          <mxGeometry relative="1" as="geometry">
            <mxPoint x="700" y="510" as="sourcePoint" />
          </mxGeometry>
        </mxCell>
        <mxCell id="mvVUBPSx_ql1-SSS3bie-8" value="" style="html=1;verticalAlign=bottom;endArrow=open;dashed=1;endSize=8;exitX=0;exitY=0.95;labelBorderColor=none;fontSize=12;jumpStyle=none;" parent="1" source="mvVUBPSx_ql1-SSS3bie-6" target="mvVUBPSx_ql1-SSS3bie-4" edge="1">
          <mxGeometry relative="1" as="geometry">
            <mxPoint x="700" y="586" as="targetPoint" />
          </mxGeometry>
        </mxCell>
        <mxCell id="vNQY04vLd8BujldURRaK-1" value="" style="line;strokeWidth=1.5;fillColor=none;align=left;verticalAlign=middle;spacingTop=-1;spacingLeft=3;spacingRight=3;rotatable=0;labelPosition=right;points=[];portConstraint=eastwest;dashed=1;" parent="1" vertex="1">
          <mxGeometry x="200" y="650" width="830" height="8" as="geometry" />
        </mxCell>
        <mxCell id="vNQY04vLd8BujldURRaK-2" value="[changeMapValue == &quot;N&quot;]" style="text;align=center;fontStyle=0;verticalAlign=middle;spacingLeft=3;spacingRight=3;strokeColor=none;rotatable=0;points=[[0,0.5],[1,0.5]];portConstraint=eastwest;" parent="1" vertex="1">
          <mxGeometry x="319" y="658" width="80" height="26" as="geometry" />
        </mxCell>
        <mxCell id="vNQY04vLd8BujldURRaK-15" value="" style="html=1;points=[];perimeter=orthogonalPerimeter;fontSize=12;strokeWidth=1;" parent="1" vertex="1">
          <mxGeometry x="611" y="710" width="10" height="160" as="geometry" />
        </mxCell>
        <mxCell id="vNQY04vLd8BujldURRaK-16" value="&amp;lt;&amp;lt;create&amp;gt;&amp;gt;" style="html=1;verticalAlign=bottom;endArrow=block;labelBorderColor=none;fontSize=12;jumpStyle=none;" parent="1" edge="1">
          <mxGeometry relative="1" as="geometry">
            <mxPoint x="280" y="710" as="sourcePoint" />
            <mxPoint x="616.5" y="710" as="targetPoint" />
          </mxGeometry>
        </mxCell>
        <mxCell id="vNQY04vLd8BujldURRaK-17" value="" style="html=1;verticalAlign=bottom;endArrow=open;dashed=1;endSize=8;labelBorderColor=none;fontSize=12;jumpStyle=none;" parent="1" edge="1">
          <mxGeometry relative="1" as="geometry">
            <mxPoint x="280" y="860" as="targetPoint" />
            <mxPoint x="610.5" y="860" as="sourcePoint" />
          </mxGeometry>
        </mxCell>
        <mxCell id="vNQY04vLd8BujldURRaK-18" value="" style="html=1;points=[];perimeter=orthogonalPerimeter;fontSize=12;strokeWidth=1;" parent="1" vertex="1">
          <mxGeometry x="614" y="740" width="10" height="110" as="geometry" />
        </mxCell>
        <mxCell id="vNQY04vLd8BujldURRaK-19" value="makeMap" style="edgeStyle=orthogonalEdgeStyle;html=1;align=left;spacingLeft=2;endArrow=block;rounded=0;entryX=1;entryY=0;labelBorderColor=none;fontSize=12;jumpStyle=none;" parent="1" target="vNQY04vLd8BujldURRaK-18" edge="1">
          <mxGeometry relative="1" as="geometry">
            <mxPoint x="619" y="720" as="sourcePoint" />
            <Array as="points">
              <mxPoint x="649" y="720" />
            </Array>
          </mxGeometry>
        </mxCell>
        <mxCell id="vNQY04vLd8BujldURRaK-20" value="" style="html=1;points=[];perimeter=orthogonalPerimeter;fontSize=12;strokeWidth=1;" parent="1" vertex="1">
          <mxGeometry x="770.5" y="760" width="10" height="80" as="geometry" />
        </mxCell>
        <mxCell id="vNQY04vLd8BujldURRaK-21" value="&amp;lt;&amp;lt;create&amp;gt;&amp;gt;" style="html=1;verticalAlign=bottom;endArrow=block;entryX=0;entryY=0;labelBorderColor=none;fontSize=12;jumpStyle=none;" parent="1" source="vNQY04vLd8BujldURRaK-18" target="vNQY04vLd8BujldURRaK-20" edge="1">
          <mxGeometry relative="1" as="geometry">
            <mxPoint x="700.5" y="760" as="sourcePoint" />
          </mxGeometry>
        </mxCell>
        <mxCell id="vNQY04vLd8BujldURRaK-22" value="" style="html=1;verticalAlign=bottom;endArrow=open;dashed=1;endSize=8;exitX=0;exitY=0.95;labelBorderColor=none;fontSize=12;jumpStyle=none;" parent="1" source="vNQY04vLd8BujldURRaK-20" target="vNQY04vLd8BujldURRaK-18" edge="1">
          <mxGeometry relative="1" as="geometry">
            <mxPoint x="700.5" y="836" as="targetPoint" />
          </mxGeometry>
        </mxCell>
        <mxCell id="vNQY04vLd8BujldURRaK-24" value="&amp;lt;&amp;lt;create&amp;gt;&amp;gt;" style="html=1;verticalAlign=bottom;endArrow=block;labelBorderColor=none;fontSize=12;jumpStyle=none;" parent="1" source="h33DekUE-be9hYsTi6TP-1" edge="1">
          <mxGeometry relative="1" as="geometry">
            <mxPoint x="1015" y="930" as="sourcePoint" />
            <mxPoint x="950" y="930" as="targetPoint" />
          </mxGeometry>
        </mxCell>
        <mxCell id="vNQY04vLd8BujldURRaK-25" value="" style="html=1;verticalAlign=bottom;endArrow=open;dashed=1;endSize=8;exitX=0;exitY=0.933;labelBorderColor=none;fontSize=12;jumpStyle=none;exitDx=0;exitDy=0;exitPerimeter=0;" parent="1" source="vNQY04vLd8BujldURRaK-23" target="h33DekUE-be9hYsTi6TP-1" edge="1">
          <mxGeometry relative="1" as="geometry">
            <mxPoint x="1015" y="987" as="targetPoint" />
          </mxGeometry>
        </mxCell>
        <mxCell id="vNQY04vLd8BujldURRaK-27" value="&amp;lt;&amp;lt;create&amp;gt;&amp;gt;" style="html=1;verticalAlign=bottom;endArrow=block;labelBorderColor=none;fontSize=12;jumpStyle=none;" parent="1" edge="1">
          <mxGeometry relative="1" as="geometry">
            <mxPoint x="449.5" y="1025" as="sourcePoint" />
            <mxPoint x="776.5" y="1025" as="targetPoint" />
            <Array as="points">
              <mxPoint x="670" y="1025" />
            </Array>
          </mxGeometry>
        </mxCell>
        <mxCell id="vNQY04vLd8BujldURRaK-28" value="" style="html=1;verticalAlign=bottom;endArrow=open;dashed=1;endSize=8;exitX=-0.1;exitY=0.917;labelBorderColor=none;fontSize=12;jumpStyle=none;exitDx=0;exitDy=0;exitPerimeter=0;" parent="1" source="vNQY04vLd8BujldURRaK-26" edge="1">
          <mxGeometry relative="1" as="geometry">
            <mxPoint x="450" y="1079" as="targetPoint" />
          </mxGeometry>
        </mxCell>
        <mxCell id="l2cpXGYDL4alfi5mq6In-3" value="request Action" style="html=1;verticalAlign=bottom;endArrow=block;entryX=1;entryY=0;labelBorderColor=none;fontSize=12;jumpStyle=none;" parent="1" source="h33DekUE-be9hYsTi6TP-1" target="l2cpXGYDL4alfi5mq6In-2" edge="1">
          <mxGeometry relative="1" as="geometry">
            <mxPoint x="515" y="1120" as="sourcePoint" />
          </mxGeometry>
        </mxCell>
        <mxCell id="l2cpXGYDL4alfi5mq6In-4" value="Action Vaule" style="html=1;verticalAlign=bottom;endArrow=open;dashed=1;endSize=8;exitX=1;exitY=0.95;labelBorderColor=none;fontSize=12;jumpStyle=none;" parent="1" source="l2cpXGYDL4alfi5mq6In-2" target="h33DekUE-be9hYsTi6TP-1" edge="1">
          <mxGeometry relative="1" as="geometry">
            <mxPoint x="515" y="1177" as="targetPoint" />
          </mxGeometry>
        </mxCell>
        <mxCell id="Ns3nmdR3iaZhxcRfa-Np-2" value="request bridgeCard" style="html=1;verticalAlign=bottom;endArrow=block;entryX=1;entryY=0;labelBorderColor=none;fontSize=12;jumpStyle=none;" parent="1" target="Ns3nmdR3iaZhxcRfa-Np-1" edge="1">
          <mxGeometry relative="1" as="geometry">
            <mxPoint x="279.5" y="1259" as="sourcePoint" />
          </mxGeometry>
        </mxCell>
        <mxCell id="Ns3nmdR3iaZhxcRfa-Np-3" value="bridgeCard number" style="html=1;verticalAlign=bottom;endArrow=open;dashed=1;endSize=8;exitX=1;exitY=0.95;labelBorderColor=none;fontSize=12;jumpStyle=none;" parent="1" source="Ns3nmdR3iaZhxcRfa-Np-1" edge="1">
          <mxGeometry relative="1" as="geometry">
            <mxPoint x="279.5" y="1316" as="targetPoint" />
          </mxGeometry>
        </mxCell>
        <mxCell id="vnX1RdcI4P5BOMBEg8j9-2" value="rollDice" style="html=1;verticalAlign=bottom;endArrow=block;entryX=1;entryY=0;labelBorderColor=none;fontSize=12;jumpStyle=none;" parent="1" target="vnX1RdcI4P5BOMBEg8j9-1" edge="1">
          <mxGeometry relative="1" as="geometry">
            <mxPoint x="279.5" y="1410" as="sourcePoint" />
          </mxGeometry>
        </mxCell>
        <mxCell id="vnX1RdcI4P5BOMBEg8j9-3" value="diceNum" style="html=1;verticalAlign=bottom;endArrow=open;dashed=1;endSize=8;exitX=1;exitY=0.95;labelBorderColor=none;fontSize=12;jumpStyle=none;" parent="1" source="vnX1RdcI4P5BOMBEg8j9-1" edge="1">
          <mxGeometry relative="1" as="geometry">
            <mxPoint x="279.5" y="1467" as="targetPoint" />
          </mxGeometry>
        </mxCell>
        <mxCell id="vnX1RdcI4P5BOMBEg8j9-8" value="request moveCommand" style="html=1;verticalAlign=bottom;endArrow=block;entryX=0;entryY=0;labelBorderColor=none;fontSize=12;jumpStyle=none;" parent="1" target="vnX1RdcI4P5BOMBEg8j9-7" edge="1">
          <mxGeometry relative="1" as="geometry">
            <mxPoint x="279.5" y="1900" as="sourcePoint" />
          </mxGeometry>
        </mxCell>
        <mxCell id="vnX1RdcI4P5BOMBEg8j9-9" value="" style="html=1;verticalAlign=bottom;endArrow=open;dashed=1;endSize=8;exitX=-0.25;exitY=0.993;labelBorderColor=none;fontSize=12;jumpStyle=none;exitDx=0;exitDy=0;exitPerimeter=0;" parent="1" source="vnX1RdcI4P5BOMBEg8j9-7" edge="1">
          <mxGeometry relative="1" as="geometry">
            <mxPoint x="279.5" y="2187.97" as="targetPoint" />
          </mxGeometry>
        </mxCell>
        <mxCell id="15U3rye4Yl3UAOw7nZXL-2" value="allow removeBridgeCard" style="html=1;verticalAlign=bottom;endArrow=block;entryX=0;entryY=0;labelBorderColor=none;fontSize=12;jumpStyle=none;" parent="1" source="h33DekUE-be9hYsTi6TP-1" target="15U3rye4Yl3UAOw7nZXL-1" edge="1">
          <mxGeometry relative="1" as="geometry">
            <mxPoint x="375" y="1540" as="sourcePoint" />
          </mxGeometry>
        </mxCell>
        <mxCell id="15U3rye4Yl3UAOw7nZXL-3" value="" style="html=1;verticalAlign=bottom;endArrow=open;dashed=1;endSize=8;exitX=0;exitY=0.95;labelBorderColor=none;fontSize=12;jumpStyle=none;" parent="1" source="15U3rye4Yl3UAOw7nZXL-1" target="h33DekUE-be9hYsTi6TP-1" edge="1">
          <mxGeometry relative="1" as="geometry">
            <mxPoint x="375" y="1616" as="targetPoint" />
          </mxGeometry>
        </mxCell>
        <mxCell id="gjLkJTrKqPsfGflxljrR-1" value="alt" style="shape=umlFrame;whiteSpace=wrap;html=1;" parent="1" vertex="1">
          <mxGeometry x="230" y="1360" width="770" height="280" as="geometry" />
        </mxCell>
        <mxCell id="gjLkJTrKqPsfGflxljrR-2" value="[BridgeCardNum &lt; 1]" style="text;align=center;fontStyle=0;verticalAlign=middle;spacingLeft=3;spacingRight=3;strokeColor=none;rotatable=0;points=[[0,0.5],[1,0.5]];portConstraint=eastwest;" parent="1" vertex="1">
          <mxGeometry x="319" y="1360" width="80" height="26" as="geometry" />
        </mxCell>
        <mxCell id="gjLkJTrKqPsfGflxljrR-3" value="[else]" style="text;align=center;fontStyle=0;verticalAlign=middle;spacingLeft=3;spacingRight=3;strokeColor=none;rotatable=0;points=[[0,0.5],[1,0.5]];portConstraint=eastwest;" parent="1" vertex="1">
          <mxGeometry x="280" y="1487" width="80" height="26" as="geometry" />
        </mxCell>
        <mxCell id="VOkcZ2gZYRHQOWG9a0Fp-1" value="" style="line;strokeWidth=1.5;fillColor=none;align=left;verticalAlign=middle;spacingTop=-1;spacingLeft=3;spacingRight=3;rotatable=0;labelPosition=right;points=[];portConstraint=eastwest;dashed=1;" parent="1" vertex="1">
          <mxGeometry x="230" y="1479" width="770" height="8" as="geometry" />
        </mxCell>
        <mxCell id="xUQN6jmv4mlj2ApzTpom-1" value="alt" style="shape=umlFrame;whiteSpace=wrap;html=1;" parent="1" vertex="1">
          <mxGeometry x="159" y="1840" width="921" height="530" as="geometry" />
        </mxCell>
        <mxCell id="xUQN6jmv4mlj2ApzTpom-2" value="[diceNum &gt;= 1]" style="text;align=center;fontStyle=0;verticalAlign=middle;spacingLeft=3;spacingRight=3;strokeColor=none;rotatable=0;points=[[0,0.5],[1,0.5]];portConstraint=eastwest;" parent="1" vertex="1">
          <mxGeometry x="294" y="1850" width="80" height="26" as="geometry" />
        </mxCell>
        <mxCell id="xUQN6jmv4mlj2ApzTpom-3" value="" style="line;strokeWidth=1.5;fillColor=none;align=left;verticalAlign=middle;spacingTop=-1;spacingLeft=3;spacingRight=3;rotatable=0;labelPosition=right;points=[];portConstraint=eastwest;dashed=1;" parent="1" vertex="1">
          <mxGeometry x="159" y="2200" width="921" height="8" as="geometry" />
        </mxCell>
        <mxCell id="xUQN6jmv4mlj2ApzTpom-14" value="diceNum" style="html=1;verticalAlign=bottom;endArrow=open;dashed=1;endSize=8;exitX=0;exitY=0.95;labelBorderColor=none;fontSize=12;jumpStyle=none;" parent="1" source="xUQN6jmv4mlj2ApzTpom-12" target="h33DekUE-be9hYsTi6TP-1" edge="1">
          <mxGeometry relative="1" as="geometry">
            <mxPoint x="875" y="1776" as="targetPoint" />
          </mxGeometry>
        </mxCell>
        <mxCell id="xUQN6jmv4mlj2ApzTpom-15" value="alt" style="shape=umlFrame;whiteSpace=wrap;html=1;fontSize=12;strokeWidth=1;" parent="1" vertex="1">
          <mxGeometry x="157" y="1330" width="920" height="480" as="geometry" />
        </mxCell>
        <mxCell id="xUQN6jmv4mlj2ApzTpom-16" value="[Action Value == &quot;Rest&quot;]" style="text;align=center;fontStyle=0;verticalAlign=middle;spacingLeft=3;spacingRight=3;strokeColor=none;rotatable=0;points=[[0,0.5],[1,0.5]];portConstraint=eastwest;" parent="1" vertex="1">
          <mxGeometry x="313" y="1330" width="80" height="26" as="geometry" />
        </mxCell>
        <mxCell id="xUQN6jmv4mlj2ApzTpom-19" value="[Action Value == &quot;Move&quot;]" style="text;align=center;fontStyle=0;verticalAlign=middle;spacingLeft=3;spacingRight=3;strokeColor=none;rotatable=0;points=[[0,0.5],[1,0.5]];portConstraint=eastwest;" parent="1" vertex="1">
          <mxGeometry x="315" y="1658" width="80" height="26" as="geometry" />
        </mxCell>
        <mxCell id="xUQN6jmv4mlj2ApzTpom-21" value="moveCommand" style="html=1;verticalAlign=bottom;endArrow=block;labelBorderColor=none;fontSize=12;jumpStyle=none;" parent="1" edge="1">
          <mxGeometry relative="1" as="geometry">
            <mxPoint x="460" y="1975" as="sourcePoint" />
            <mxPoint x="610" y="1975" as="targetPoint" />
          </mxGeometry>
        </mxCell>
        <mxCell id="xUQN6jmv4mlj2ApzTpom-25" value="location/card info" style="text;html=1;align=center;verticalAlign=middle;resizable=0;points=[];autosize=1;strokeColor=none;fillColor=none;fontSize=12;" parent="1" vertex="1">
          <mxGeometry x="315" y="2170" width="110" height="20" as="geometry" />
        </mxCell>
        <mxCell id="xUQN6jmv4mlj2ApzTpom-26" value="loop(1,*)" style="shape=umlFrame;whiteSpace=wrap;html=1;fontSize=12;strokeWidth=1;" parent="1" vertex="1">
          <mxGeometry x="354" y="1919" width="521" height="129" as="geometry" />
        </mxCell>
        <mxCell id="xUQN6jmv4mlj2ApzTpom-27" value="[Correct moveCommand]" style="text;align=center;fontStyle=0;verticalAlign=middle;spacingLeft=3;spacingRight=3;strokeColor=none;rotatable=0;points=[[0,0.5],[1,0.5]];portConstraint=eastwest;" parent="1" vertex="1">
          <mxGeometry x="490" y="1921" width="80" height="26" as="geometry" />
        </mxCell>
        <mxCell id="KTcS7PsUGW4kPa3MCJEL-2" value="callNextPlayer" style="html=1;verticalAlign=bottom;endArrow=block;entryX=0;entryY=0;labelBorderColor=none;fontSize=12;jumpStyle=none;" parent="1" target="KTcS7PsUGW4kPa3MCJEL-1" edge="1">
          <mxGeometry relative="1" as="geometry">
            <mxPoint x="279.5" y="2260" as="sourcePoint" />
          </mxGeometry>
        </mxCell>
        <mxCell id="KTcS7PsUGW4kPa3MCJEL-3" value="" style="html=1;verticalAlign=bottom;endArrow=open;dashed=1;endSize=8;exitX=0;exitY=0.95;labelBorderColor=none;fontSize=12;jumpStyle=none;" parent="1" source="KTcS7PsUGW4kPa3MCJEL-1" edge="1">
          <mxGeometry relative="1" as="geometry">
            <mxPoint x="279.5" y="2336" as="targetPoint" />
          </mxGeometry>
        </mxCell>
        <mxCell id="o6B8jI0TBVCMkiQN9ra2-1" value="" style="line;strokeWidth=1.5;fillColor=none;align=left;verticalAlign=middle;spacingTop=-1;spacingLeft=3;spacingRight=3;rotatable=0;labelPosition=right;points=[];portConstraint=eastwest;dashed=1;" parent="1" vertex="1">
          <mxGeometry x="158" y="1650" width="921" height="8" as="geometry" />
        </mxCell>
        <mxCell id="JNeoq6ogvczf7wzM6Hyj-2" value="request isEnded Value" style="html=1;verticalAlign=bottom;endArrow=block;entryX=1;entryY=0;labelBorderColor=none;fontSize=12;jumpStyle=none;" parent="1" source="h33DekUE-be9hYsTi6TP-1" target="JNeoq6ogvczf7wzM6Hyj-1" edge="1">
          <mxGeometry relative="1" as="geometry">
            <mxPoint x="515" y="2410" as="sourcePoint" />
          </mxGeometry>
        </mxCell>
        <mxCell id="JNeoq6ogvczf7wzM6Hyj-3" value="isEnded Value" style="html=1;verticalAlign=bottom;endArrow=open;dashed=1;endSize=8;exitX=1;exitY=0.95;labelBorderColor=none;fontSize=12;jumpStyle=none;" parent="1" source="JNeoq6ogvczf7wzM6Hyj-1" target="h33DekUE-be9hYsTi6TP-1" edge="1">
          <mxGeometry relative="1" as="geometry">
            <mxPoint x="515" y="2467" as="targetPoint" />
          </mxGeometry>
        </mxCell>
        <mxCell id="5TxkiWPkhCnUPzTvtWIk-1" value="alt" style="shape=umlFrame;whiteSpace=wrap;html=1;fontSize=12;strokeWidth=1;" parent="1" vertex="1">
          <mxGeometry x="159" y="2490" width="921" height="360" as="geometry" />
        </mxCell>
        <mxCell id="5TxkiWPkhCnUPzTvtWIk-3" value="[isEnded == true]" style="text;align=center;fontStyle=0;verticalAlign=middle;spacingLeft=3;spacingRight=3;strokeColor=none;rotatable=0;points=[[0,0.5],[1,0.5]];portConstraint=eastwest;" parent="1" vertex="1">
          <mxGeometry x="289" y="2500" width="80" height="26" as="geometry" />
        </mxCell>
        <mxCell id="5TxkiWPkhCnUPzTvtWIk-4" value="[else]" style="text;align=center;fontStyle=0;verticalAlign=middle;spacingLeft=3;spacingRight=3;strokeColor=none;rotatable=0;points=[[0,0.5],[1,0.5]];portConstraint=eastwest;" parent="1" vertex="1">
          <mxGeometry x="261" y="2709" width="80" height="26" as="geometry" />
        </mxCell>
        <mxCell id="5TxkiWPkhCnUPzTvtWIk-5" value="" style="line;strokeWidth=1.5;fillColor=none;align=left;verticalAlign=middle;spacingTop=-1;spacingLeft=3;spacingRight=3;rotatable=0;labelPosition=right;points=[];portConstraint=eastwest;dashed=1;" parent="1" vertex="1">
          <mxGeometry x="157" y="2700" width="921" height="8" as="geometry" />
        </mxCell>
        <mxCell id="5TxkiWPkhCnUPzTvtWIk-6" value="opt" style="shape=umlFrame;whiteSpace=wrap;html=1;fontSize=12;strokeWidth=1;" parent="1" vertex="1">
          <mxGeometry x="157" y="2890" width="921" height="390" as="geometry" />
        </mxCell>
        <mxCell id="njjSYzBFQPrAUW__--Qe-1" value="[endedPlayerCount == playerNum - 1]" style="text;align=center;fontStyle=0;verticalAlign=middle;spacingLeft=3;spacingRight=3;strokeColor=none;rotatable=0;points=[[0,0.5],[1,0.5]];portConstraint=eastwest;" parent="1" vertex="1">
          <mxGeometry x="294" y="2897" width="80" height="26" as="geometry" />
        </mxCell>
        <mxCell id="bgJSkqbNLaHPzkqVsaUt-1" value="" style="html=1;points=[];perimeter=orthogonalPerimeter;fontSize=12;strokeWidth=1;" vertex="1" parent="1">
          <mxGeometry x="615" y="1991" width="10" height="40" as="geometry" />
        </mxCell>
        <mxCell id="bgJSkqbNLaHPzkqVsaUt-2" value="isValidCell(moveCommand)" style="edgeStyle=orthogonalEdgeStyle;html=1;align=left;spacingLeft=2;endArrow=block;rounded=0;entryX=1;entryY=0;labelBorderColor=none;fontSize=12;jumpStyle=none;" edge="1" target="bgJSkqbNLaHPzkqVsaUt-1" parent="1">
          <mxGeometry relative="1" as="geometry">
            <mxPoint x="615" y="1975" as="sourcePoint" />
            <Array as="points">
              <mxPoint x="645" y="1975" />
            </Array>
          </mxGeometry>
        </mxCell>
      </root>
    </mxGraphModel>
  </diagram>
  <diagram id="sFEf3yGDhS2CI73uv-ky" name="ClassDiagram">
    <mxGraphModel dx="1967" dy="1129" grid="1" gridSize="10" guides="1" tooltips="1" connect="1" arrows="1" fold="1" page="1" pageScale="1" pageWidth="827" pageHeight="1169" math="0" shadow="0">
      <root>
        <mxCell id="0" />
        <mxCell id="1" parent="0" />
        <mxCell id="rFmwnACQMubi9MNvf3LE-1" value="&lt;p style=&quot;margin:0px;margin-top:4px;text-align:center;&quot;&gt;&lt;b&gt;Player&lt;/b&gt;&lt;/p&gt;&lt;hr size=&quot;1&quot;&gt;&lt;p style=&quot;margin:0px;margin-left:4px;&quot;&gt;&amp;nbsp;id: int&lt;/p&gt;&lt;p style=&quot;margin:0px;margin-left:4px;&quot;&gt;&amp;nbsp;isEnded: boolean&lt;/p&gt;&lt;p style=&quot;margin:0px;margin-left:4px;&quot;&gt;&amp;nbsp;phillipsCardNum: int&lt;/p&gt;&lt;p style=&quot;margin:0px;margin-left:4px;&quot;&gt;&amp;nbsp;hammarCardNum: int&lt;/p&gt;&lt;p style=&quot;margin:0px;margin-left:4px;&quot;&gt;&amp;nbsp;sawCardNum: int&lt;/p&gt;&lt;p style=&quot;margin:0px;margin-left:4px;&quot;&gt;&amp;nbsp;bridgeCardNum: int&lt;/p&gt;&lt;hr size=&quot;1&quot;&gt;&lt;p style=&quot;margin:0px;margin-left:4px;&quot;&gt;&amp;nbsp;removeBridgeCard()&lt;/p&gt;&lt;p style=&quot;margin:0px;margin-left:4px;&quot;&gt;&amp;nbsp;getTotalPoint()&lt;/p&gt;&lt;p style=&quot;margin:0px;margin-left:4px;&quot;&gt;&amp;nbsp;giveTheCard()&lt;/p&gt;&lt;p style=&quot;margin:0px;margin-left:4px;&quot;&gt;&amp;nbsp;setPosition()&lt;/p&gt;" style="verticalAlign=top;align=left;overflow=fill;fontSize=12;fontFamily=Helvetica;html=1;strokeWidth=1;" vertex="1" parent="1">
          <mxGeometry x="160" y="360" width="160" height="200" as="geometry" />
        </mxCell>
        <mxCell id="KoqhWPi7YegS5_bXzMzR-1" value="&lt;p style=&quot;margin:0px;margin-top:4px;text-align:center;&quot;&gt;&lt;b&gt;GameMaster&lt;/b&gt;&lt;/p&gt;&lt;hr size=&quot;1&quot;&gt;&lt;p style=&quot;margin:0px;margin-left:4px;&quot;&gt;&amp;nbsp;endedPlayerCount: int&lt;br&gt;&lt;/p&gt;&lt;p style=&quot;margin:0px;margin-left:4px;&quot;&gt;&amp;nbsp;playerNum: int&lt;/p&gt;&lt;hr size=&quot;1&quot;&gt;&lt;p style=&quot;margin:0px;margin-left:4px;&quot;&gt;&amp;nbsp;printPlayerInfo()&lt;br&gt;&lt;/p&gt;&lt;p style=&quot;margin:0px;margin-left:4px;&quot;&gt;&amp;nbsp;findWinner()&lt;/p&gt;" style="verticalAlign=top;align=left;overflow=fill;fontSize=12;fontFamily=Helvetica;html=1;strokeWidth=1;" vertex="1" parent="1">
          <mxGeometry x="500" y="405" width="160" height="110" as="geometry" />
        </mxCell>
        <mxCell id="_Uw2GHDpXnZYJcNBWeMz-1" value="&lt;p style=&quot;margin:0px;margin-top:4px;text-align:center;&quot;&gt;&lt;b&gt;Map&lt;/b&gt;&lt;/p&gt;&lt;hr size=&quot;1&quot;&gt;&lt;p style=&quot;margin:0px;margin-left:4px;&quot;&gt;&amp;nbsp;&lt;br&gt;&lt;/p&gt;&lt;hr size=&quot;1&quot;&gt;&lt;p style=&quot;margin:0px;margin-left:4px;&quot;&gt;&amp;nbsp;makeMap()&lt;/p&gt;&lt;p style=&quot;margin:0px;margin-left:4px;&quot;&gt;&amp;nbsp;move()&lt;/p&gt;&lt;p style=&quot;margin:0px;margin-left:4px;&quot;&gt;&amp;nbsp;isValidCell()&lt;/p&gt;" style="verticalAlign=top;align=left;overflow=fill;fontSize=12;fontFamily=Helvetica;html=1;strokeWidth=1;" vertex="1" parent="1">
          <mxGeometry x="400" y="660" width="160" height="110" as="geometry" />
        </mxCell>
        <mxCell id="xZw3TBjH1keuV4HAUOWg-1" value="&lt;p style=&quot;margin:0px;margin-top:4px;text-align:center;&quot;&gt;&lt;b&gt;Cell&lt;/b&gt;&lt;/p&gt;&lt;hr size=&quot;1&quot;&gt;&lt;p style=&quot;margin:0px;margin-left:4px;&quot;&gt;&amp;nbsp;cellNum: int&lt;br&gt;&lt;/p&gt;&lt;p style=&quot;margin:0px;margin-left:4px;&quot;&gt;&amp;nbsp;cellType: String&lt;/p&gt;&lt;p style=&quot;margin:0px;margin-left:4px;&quot;&gt;&amp;nbsp;position: Position&lt;/p&gt;&lt;hr size=&quot;1&quot;&gt;&lt;p style=&quot;margin:0px;margin-left:4px;&quot;&gt;&amp;nbsp;&lt;/p&gt;" style="verticalAlign=top;align=left;overflow=fill;fontSize=12;fontFamily=Helvetica;html=1;strokeWidth=1;" vertex="1" parent="1">
          <mxGeometry x="70" y="660" width="160" height="110" as="geometry" />
        </mxCell>
        <mxCell id="R7_ku0rMWh3cXNZ3-9XI-1" value="&lt;p style=&quot;margin:0px;margin-top:4px;text-align:center;&quot;&gt;&lt;b&gt;Dice&lt;/b&gt;&lt;/p&gt;&lt;hr size=&quot;1&quot;&gt;&lt;p style=&quot;margin:0px;margin-left:4px;&quot;&gt;&lt;br&gt;&lt;/p&gt;&lt;hr size=&quot;1&quot;&gt;&lt;p style=&quot;margin:0px;margin-left:4px;&quot;&gt;&amp;nbsp;rollDice()&lt;/p&gt;" style="verticalAlign=top;align=left;overflow=fill;fontSize=12;fontFamily=Helvetica;html=1;strokeWidth=1;" vertex="1" parent="1">
          <mxGeometry x="590" y="660" width="160" height="80" as="geometry" />
        </mxCell>
        <mxCell id="NYGAuXRYHVy_SSAOeYqq-4" value="" style="endArrow=open;endFill=1;endSize=12;html=1;labelBorderColor=none;fontSize=12;jumpStyle=none;entryX=1;entryY=0.5;entryDx=0;entryDy=0;exitX=0;exitY=0.5;exitDx=0;exitDy=0;" edge="1" parent="1" source="KoqhWPi7YegS5_bXzMzR-1" target="rFmwnACQMubi9MNvf3LE-1">
          <mxGeometry width="160" relative="1" as="geometry">
            <mxPoint x="380" y="650" as="sourcePoint" />
            <mxPoint x="540" y="650" as="targetPoint" />
          </mxGeometry>
        </mxCell>
        <mxCell id="NYGAuXRYHVy_SSAOeYqq-5" value="2..4" style="edgeLabel;html=1;align=center;verticalAlign=middle;resizable=0;points=[];fontSize=12;" vertex="1" connectable="0" parent="NYGAuXRYHVy_SSAOeYqq-4">
          <mxGeometry x="0.5611" y="1" relative="1" as="geometry">
            <mxPoint x="-20" y="-11" as="offset" />
          </mxGeometry>
        </mxCell>
        <mxCell id="NYGAuXRYHVy_SSAOeYqq-6" value="1" style="edgeLabel;html=1;align=center;verticalAlign=middle;resizable=0;points=[];fontSize=12;" vertex="1" connectable="0" parent="1">
          <mxGeometry x="350" y="460" as="geometry">
            <mxPoint x="139" y="-10" as="offset" />
          </mxGeometry>
        </mxCell>
        <mxCell id="qsQily7HN8p4euAfC0dC-1" value="Manages" style="text;align=center;fontStyle=0;verticalAlign=middle;spacingLeft=3;spacingRight=3;strokeColor=none;rotatable=0;points=[[0,0.5],[1,0.5]];portConstraint=eastwest;" vertex="1" parent="1">
          <mxGeometry x="374" y="434" width="80" height="26" as="geometry" />
        </mxCell>
        <mxCell id="qsQily7HN8p4euAfC0dC-2" value="" style="endArrow=open;endFill=1;endSize=12;html=1;labelBorderColor=none;fontSize=12;jumpStyle=none;entryX=0.75;entryY=0;entryDx=0;entryDy=0;exitX=0.134;exitY=0.991;exitDx=0;exitDy=0;exitPerimeter=0;" edge="1" parent="1" source="KoqhWPi7YegS5_bXzMzR-1" target="_Uw2GHDpXnZYJcNBWeMz-1">
          <mxGeometry width="160" relative="1" as="geometry">
            <mxPoint x="520" y="520" as="sourcePoint" />
            <mxPoint x="330" y="584" as="targetPoint" />
          </mxGeometry>
        </mxCell>
        <mxCell id="qsQily7HN8p4euAfC0dC-3" value="1" style="edgeLabel;html=1;align=center;verticalAlign=middle;resizable=0;points=[];fontSize=12;" vertex="1" connectable="0" parent="qsQily7HN8p4euAfC0dC-2">
          <mxGeometry x="0.5611" y="1" relative="1" as="geometry">
            <mxPoint x="-9" y="7" as="offset" />
          </mxGeometry>
        </mxCell>
        <mxCell id="L1ajpADjLWAh0bZLyR15-1" value="1" style="edgeLabel;html=1;align=center;verticalAlign=middle;resizable=0;points=[];fontSize=12;" vertex="1" connectable="0" parent="1">
          <mxGeometry x="516.9955454745988" y="639.0043179492388" as="geometry">
            <mxPoint x="-2" y="-111" as="offset" />
          </mxGeometry>
        </mxCell>
        <mxCell id="L1ajpADjLWAh0bZLyR15-2" value="" style="endArrow=open;endFill=1;endSize=12;html=1;labelBorderColor=none;fontSize=12;jumpStyle=none;entryX=0.75;entryY=0;entryDx=0;entryDy=0;exitX=0.134;exitY=0.991;exitDx=0;exitDy=0;exitPerimeter=0;" edge="1" parent="1">
          <mxGeometry width="160" relative="1" as="geometry">
            <mxPoint x="644.44" y="515" as="sourcePoint" />
            <mxPoint x="643" y="660.99" as="targetPoint" />
          </mxGeometry>
        </mxCell>
        <mxCell id="L1ajpADjLWAh0bZLyR15-3" value="1" style="edgeLabel;html=1;align=center;verticalAlign=middle;resizable=0;points=[];fontSize=12;" vertex="1" connectable="0" parent="L1ajpADjLWAh0bZLyR15-2">
          <mxGeometry x="0.5611" y="1" relative="1" as="geometry">
            <mxPoint x="-9" y="7" as="offset" />
          </mxGeometry>
        </mxCell>
        <mxCell id="L1ajpADjLWAh0bZLyR15-4" value="1" style="edgeLabel;html=1;align=center;verticalAlign=middle;resizable=0;points=[];fontSize=12;" vertex="1" connectable="0" parent="1">
          <mxGeometry x="639.9955454745988" y="639.9943179492388" as="geometry">
            <mxPoint x="-2" y="-111" as="offset" />
          </mxGeometry>
        </mxCell>
        <mxCell id="6wVHHULs09KkgJHU1CD8-1" value="Played-on" style="text;align=center;fontStyle=0;verticalAlign=middle;spacingLeft=3;spacingRight=3;strokeColor=none;rotatable=0;points=[[0,0.5],[1,0.5]];portConstraint=eastwest;" vertex="1" parent="1">
          <mxGeometry x="450" y="572" width="80" height="26" as="geometry" />
        </mxCell>
        <mxCell id="Hg3ZIOdTWn5DOWV_km67-1" value="Played-with" style="text;align=center;fontStyle=0;verticalAlign=middle;spacingLeft=3;spacingRight=3;strokeColor=none;rotatable=0;points=[[0,0.5],[1,0.5]];portConstraint=eastwest;" vertex="1" parent="1">
          <mxGeometry x="640" y="572" width="80" height="26" as="geometry" />
        </mxCell>
        <mxCell id="2Pa3ep2gWcwSGPiSY9SL-1" value="" style="endArrow=open;endFill=1;endSize=12;html=1;labelBorderColor=none;fontSize=12;jumpStyle=none;entryX=1;entryY=0.5;entryDx=0;entryDy=0;exitX=0;exitY=0.5;exitDx=0;exitDy=0;" edge="1" parent="1" source="_Uw2GHDpXnZYJcNBWeMz-1" target="xZw3TBjH1keuV4HAUOWg-1">
          <mxGeometry width="160" relative="1" as="geometry">
            <mxPoint x="510" y="470" as="sourcePoint" />
            <mxPoint x="330" y="470" as="targetPoint" />
          </mxGeometry>
        </mxCell>
        <mxCell id="2Pa3ep2gWcwSGPiSY9SL-2" value="1..*" style="edgeLabel;html=1;align=center;verticalAlign=middle;resizable=0;points=[];fontSize=12;" vertex="1" connectable="0" parent="2Pa3ep2gWcwSGPiSY9SL-1">
          <mxGeometry x="0.5611" y="1" relative="1" as="geometry">
            <mxPoint x="-10" y="-11" as="offset" />
          </mxGeometry>
        </mxCell>
        <mxCell id="hwLT7SWgPmQz0qfsJdqi-1" value="1" style="edgeLabel;html=1;align=center;verticalAlign=middle;resizable=0;points=[];fontSize=12;" vertex="1" connectable="0" parent="1">
          <mxGeometry x="265" y="713" as="geometry">
            <mxPoint x="123" y="-8" as="offset" />
          </mxGeometry>
        </mxCell>
        <mxCell id="hwLT7SWgPmQz0qfsJdqi-3" value="Contains" style="text;align=center;fontStyle=0;verticalAlign=middle;spacingLeft=3;spacingRight=3;strokeColor=none;rotatable=0;points=[[0,0.5],[1,0.5]];portConstraint=eastwest;" vertex="1" parent="1">
          <mxGeometry x="280" y="690" width="80" height="26" as="geometry" />
        </mxCell>
        <mxCell id="8BadhrkVhsRIHHRKwLeA-1" value="" style="endArrow=open;endFill=1;endSize=12;html=1;labelBorderColor=none;fontSize=12;jumpStyle=none;exitX=0.25;exitY=1;exitDx=0;exitDy=0;" edge="1" parent="1" source="rFmwnACQMubi9MNvf3LE-1">
          <mxGeometry width="160" relative="1" as="geometry">
            <mxPoint x="510" y="470" as="sourcePoint" />
            <mxPoint x="200" y="660" as="targetPoint" />
          </mxGeometry>
        </mxCell>
        <mxCell id="8BadhrkVhsRIHHRKwLeA-2" value="1" style="edgeLabel;html=1;align=center;verticalAlign=middle;resizable=0;points=[];fontSize=12;" vertex="1" connectable="0" parent="8BadhrkVhsRIHHRKwLeA-1">
          <mxGeometry x="0.5611" y="1" relative="1" as="geometry">
            <mxPoint x="6" y="-2" as="offset" />
          </mxGeometry>
        </mxCell>
        <mxCell id="8BadhrkVhsRIHHRKwLeA-3" value="1..4" style="edgeLabel;html=1;align=center;verticalAlign=middle;resizable=0;points=[];fontSize=12;" vertex="1" connectable="0" parent="1">
          <mxGeometry x="226" y="625" as="geometry">
            <mxPoint x="-11" y="-53" as="offset" />
          </mxGeometry>
        </mxCell>
        <mxCell id="8BadhrkVhsRIHHRKwLeA-4" value="Is-on" style="text;align=center;fontStyle=0;verticalAlign=middle;spacingLeft=3;spacingRight=3;strokeColor=none;rotatable=0;points=[[0,0.5],[1,0.5]];portConstraint=eastwest;" vertex="1" parent="1">
          <mxGeometry x="140" y="598" width="80" height="26" as="geometry" />
        </mxCell>
      </root>
    </mxGraphModel>
  </diagram>
</mxfile>
